<svg version="1.1" id="Layer_1" xmlns="http://www.w3.org/2000/svg" xmlns:xlink="http://www.w3.org/1999/xlink" x="0px" y="0px"
	 width="100%" viewBox="0 0 1920 500" enable-background="new 0 0 1920 500" xml:space="preserve">
<path fill="#000000" opacity="1.000000" stroke="none" 
	d="
M1383.000000,501.000000 
	C922.000000,501.000000 461.500000,501.000000 1.000000,501.000000 
	C1.000000,334.333344 1.000000,167.666672 1.000000,1.000000 
	C641.000000,1.000000 1281.000000,1.000000 1921.000000,1.000000 
	C1921.000000,167.666672 1921.000000,334.333344 1921.000000,501.000000 
	C1741.833374,501.000000 1562.666626,501.000000 1383.000000,501.000000 
M239.919052,337.261475 
	C240.406509,335.568268 240.893967,333.875092 241.429718,332.014130 
	C250.174927,333.398560 258.685730,334.795258 267.212708,336.084961 
	C282.755615,338.435791 298.272217,338.699768 313.117798,332.823700 
	C323.027679,328.901276 331.062439,320.127625 331.113708,307.152100 
	C331.161591,295.028076 326.385345,284.814240 319.725220,275.389679 
	C313.690338,266.849884 306.808441,258.908630 300.279877,250.678085 
	C304.057037,246.429184 308.024078,242.016754 311.935883,237.555908 
	C319.894165,228.480652 326.207001,218.364624 329.549713,206.743408 
	C331.964630,198.347687 332.599945,189.785645 326.511627,180.983963 
	C324.835999,186.166061 319.606018,188.786484 321.864349,194.721619 
	C322.550598,196.525192 321.949188,199.008499 321.429504,201.051239 
	C317.149109,217.876526 306.632172,230.766220 294.659424,242.640076 
	C293.898315,243.394882 291.227142,243.307129 290.217224,242.562881 
	C277.842773,233.443802 265.527954,224.237030 253.428314,214.758530 
	C251.394333,213.165161 249.658722,210.336914 249.149475,207.804855 
	C247.328629,198.751053 246.094864,189.579178 244.617416,180.316422 
	C244.885666,180.157242 245.407013,179.637573 246.005127,179.524704 
	C254.173492,177.983383 262.312714,176.180923 270.547638,175.149704 
	C274.024200,174.714371 275.342621,173.730316 275.027557,170.344604 
	C274.867615,168.626007 274.999573,166.880249 274.999573,164.692215 
	C263.300476,166.782578 252.432816,168.724380 241.660019,170.649246 
	C240.114960,166.270020 238.641495,161.805542 236.971405,157.415863 
	C232.567551,145.840759 226.951935,135.023727 217.840530,126.299438 
	C207.439468,116.340279 192.916092,114.628868 182.280334,123.609093 
	C176.356750,128.610611 171.171661,135.047729 167.310883,141.787155 
	C162.648987,149.925079 159.514130,158.983276 156.211166,167.827240 
	C155.183121,170.579910 154.578247,170.852203 151.823959,170.170181 
	C145.820709,168.683624 139.642014,167.914871 133.547150,166.787231 
	C119.296967,164.150726 104.992294,163.772171 90.893181,167.201477 
	C83.274292,169.054611 76.143715,172.438293 70.989235,178.933838 
	C65.254036,186.161194 65.589043,194.606781 66.195084,202.976273 
	C66.422371,206.115173 68.118217,209.147751 69.225456,212.471786 
	C72.336426,210.331863 74.598663,208.775757 76.862930,207.211899 
	C76.809624,206.893967 76.792976,206.564590 76.697754,206.259750 
	C72.041481,191.353439 76.410110,184.084610 84.388321,180.213654 
	C91.103127,176.955734 98.852875,174.755264 106.278656,174.306366 
	C115.899765,173.724792 125.690750,175.027161 135.337357,176.137482 
	C141.219116,176.814453 146.966827,178.656021 152.203598,179.844833 
	C150.720016,189.104965 149.485245,197.653458 147.912460,206.139313 
	C147.411591,208.841705 146.792969,212.580368 144.904861,213.805740 
	C123.293793,227.831207 103.174965,243.528046 86.293144,263.161102 
	C77.557877,273.319977 70.018806,284.179565 66.956879,297.397919 
	C63.215263,313.550568 68.107475,326.410065 84.326103,332.938660 
	C94.952286,337.216156 106.074669,338.370911 117.438156,336.997040 
	C128.327179,335.680481 139.302689,334.777863 150.041779,332.678436 
	C154.058426,331.893219 155.704758,332.514313 156.731247,336.017761 
	C159.088760,334.931976 161.176163,334.009033 163.223648,333.004730 
	C163.858124,332.693512 164.946243,331.993958 164.875214,331.755005 
	C163.846924,328.295441 166.478561,328.536499 168.487274,327.806396 
	C177.661011,324.472076 186.764923,320.945770 195.936646,317.605713 
	C197.264267,317.122284 199.013519,316.759430 200.245773,317.213806 
	C211.072357,321.205841 221.825943,325.395935 232.928070,329.652740 
	C230.636063,335.355316 228.614853,341.199799 225.966553,346.744812 
	C223.299698,352.328674 220.431229,357.911713 216.881699,362.953400 
	C212.797302,368.754730 207.796234,374.763336 200.160873,374.715576 
	C194.034378,374.677277 190.593170,377.472504 186.939392,381.324219 
	C197.983871,387.835114 211.879120,382.889740 220.302414,373.520416 
	C229.636490,363.138031 234.927673,350.799591 239.919052,337.261475 
M473.938141,221.715256 
	C467.919586,209.455124 458.749359,200.489197 445.972046,195.514053 
	C436.407135,191.789749 426.444885,191.277817 416.238739,191.919724 
	C397.042328,193.127090 382.049957,201.733139 373.399933,218.600861 
	C361.506958,241.792358 361.417694,265.895844 373.191681,289.389008 
	C384.835999,312.623413 410.094208,319.758453 432.114441,316.244720 
	C440.467255,314.911896 448.481476,311.457245 458.712982,308.341492 
	C460.345734,310.488464 463.038086,314.028839 465.972931,317.888000 
	C470.722198,312.584015 474.778229,308.054291 479.666534,302.595062 
	C476.331787,299.777649 473.049805,297.004761 469.973541,294.405701 
	C482.562500,270.719177 483.790771,246.899826 473.938141,221.715256 
M996.606812,248.132294 
	C997.404541,251.767105 998.836121,255.392365 998.891113,259.038391 
	C999.140076,275.533783 999.000000,292.035034 999.000000,308.534180 
	C999.000000,310.285004 999.000000,312.035828 999.000000,313.733276 
	C1006.359985,313.733276 1012.960632,313.733276 1020.000000,313.733276 
	C1020.000000,311.680084 1019.999939,309.887634 1020.000000,308.095184 
	C1020.000061,291.762695 1019.791870,275.426697 1020.067932,259.098877 
	C1020.277771,246.685547 1027.933716,238.953323 1040.935425,240.996216 
	C1046.300049,241.839127 1052.950317,249.028625 1052.984985,257.651306 
	C1053.039917,271.317047 1053.000000,284.983185 1053.000122,298.649139 
	C1053.000122,303.605713 1053.000000,308.562286 1053.000000,313.692810 
	C1060.203125,313.692810 1066.920776,313.692810 1073.989746,313.692810 
	C1073.989746,291.919647 1074.302979,270.444611 1073.814087,248.987823 
	C1073.650391,241.803131 1070.479736,235.253830 1065.312256,229.678833 
	C1055.130615,218.693909 1028.694336,218.952423 1018.668762,231.614990 
	C1017.608154,232.954514 1016.403809,235.934601 1013.868896,232.674500 
	C1005.112122,221.412384 993.165283,220.054520 980.500122,223.062805 
	C974.859131,224.402695 969.695374,227.751617 964.179138,230.250244 
	C964.077942,228.646454 963.947083,226.573227 963.801636,224.268707 
	C957.577698,224.268707 951.509399,224.268707 945.332886,224.268707 
	C945.332886,254.255157 945.332886,283.971802 945.332886,313.601654 
	C952.392639,313.601654 959.113342,313.601654 966.000000,313.601654 
	C966.000000,300.544128 965.886353,287.882935 966.044495,275.225128 
	C966.133118,268.129791 966.354736,261.006775 967.094971,253.956985 
	C967.864197,246.632111 972.796814,242.236740 981.160461,240.407303 
	C986.066101,239.334259 992.779846,242.568741 996.606812,248.132294 
M1387.000000,316.500000 
	C1387.000000,328.915741 1387.000000,341.331451 1387.000000,353.759705 
	C1394.312256,353.759705 1400.908813,353.759705 1407.864990,353.759705 
	C1407.864990,339.601166 1407.864990,325.674561 1407.864990,311.939423 
	C1413.431885,313.518677 1418.673828,315.122253 1423.977417,316.486877 
	C1436.312378,319.660706 1454.324585,312.678314 1461.869751,302.542358 
	C1476.005615,283.552429 1475.874268,250.510681 1459.185669,233.330063 
	C1450.309204,224.191895 1439.463989,220.397003 1427.415771,221.342712 
	C1420.727417,221.867706 1414.281006,225.454926 1407.717651,227.637741 
	C1407.290771,227.779709 1406.794922,227.714111 1406.292480,227.747665 
	C1406.075317,226.526001 1405.877930,225.415436 1405.683960,224.323730 
	C1399.474121,224.323730 1393.398193,224.323730 1387.000000,224.323730 
	C1387.000000,254.930832 1387.000000,285.215424 1387.000000,316.500000 
M1687.000000,263.500000 
	C1687.000000,280.248474 1687.000000,296.996979 1687.000000,313.817749 
	C1693.339966,313.817749 1698.965088,313.817749 1704.594971,313.817749 
	C1704.925171,312.455475 1705.213867,311.264801 1705.536865,309.932007 
	C1706.471924,310.100372 1707.261108,310.012207 1707.721313,310.359772 
	C1715.356812,316.126892 1724.165527,317.607849 1733.351807,316.935608 
	C1744.728271,316.103027 1754.378540,311.739471 1761.405884,302.245941 
	C1766.780518,294.985229 1770.005493,287.122040 1771.173828,278.075317 
	C1773.593994,259.335083 1770.084106,242.599457 1755.228760,229.935623 
	C1746.867188,222.807449 1736.640015,219.946136 1725.583862,221.787796 
	C1719.706787,222.766754 1713.939209,224.403290 1707.866211,225.801941 
	C1707.866211,215.665955 1707.866211,205.068695 1707.866211,194.312225 
	C1700.781250,194.312225 1694.066162,194.312225 1687.000000,194.312225 
	C1687.000000,217.248444 1687.000000,239.874222 1687.000000,263.500000 
M1277.079590,300.606842 
	C1279.211792,297.382935 1281.343872,294.158997 1283.681030,290.625275 
	C1275.896240,288.355988 1268.956543,286.333008 1262.099976,284.334259 
	C1254.972290,297.751129 1244.480103,298.275391 1234.978638,296.401154 
	C1225.244507,294.481079 1219.719727,285.071045 1219.356934,275.000000 
	C1230.000977,275.000000 1240.635498,275.000000 1251.270142,275.000000 
	C1262.040527,275.000000 1272.810791,275.000000 1284.408813,275.000000 
	C1283.907349,268.370056 1283.925537,262.251526 1282.892456,256.315979 
	C1280.924805,245.012268 1276.057251,235.223419 1266.152100,228.575516 
	C1256.309814,221.969696 1245.651001,220.399536 1233.935303,221.848969 
	C1219.926514,223.582062 1206.340210,233.556046 1201.015015,246.557800 
	C1197.059326,256.216064 1196.082764,266.105835 1196.761475,276.659515 
	C1197.916504,294.622467 1213.926270,313.866608 1233.545898,316.276917 
	C1250.927368,318.412170 1265.253662,314.391388 1277.079590,300.606842 
M663.139343,242.548370 
	C661.100830,235.671448 657.345764,230.270706 650.734314,226.900726 
	C640.789246,221.831543 630.511230,220.635513 619.411560,221.837936 
	C603.288208,223.584579 592.179382,232.200195 588.310486,247.507080 
	C593.572021,249.192093 598.803711,250.971710 604.111572,252.483887 
	C605.242065,252.805969 607.530640,252.528885 607.798889,251.896912 
	C612.610779,240.557022 622.473816,240.553070 632.283936,241.120804 
	C639.144836,241.517853 643.629761,247.222504 643.745544,254.607147 
	C633.680786,256.401520 623.553406,258.026489 613.504578,260.043152 
	C600.128784,262.727478 588.504578,267.830994 585.432861,283.097687 
	C583.553772,292.437164 587.121094,305.097534 595.180115,311.295898 
	C605.318176,319.093262 631.062073,318.616943 639.986755,309.625366 
	C641.492859,308.107971 643.589111,307.176270 645.810242,305.711884 
	C645.953430,308.800720 646.065674,311.221771 646.178467,313.655182 
	C652.610474,313.655182 658.665405,313.655182 665.000000,313.655182 
	C665.000000,301.676697 665.173279,290.037476 664.951538,278.405762 
	C664.727722,266.665314 664.112000,254.932327 663.139343,242.548370 
M1597.912476,238.457596 
	C1596.620483,241.186401 1595.328369,243.915222 1593.873047,246.988678 
	C1599.899292,249.090607 1605.360596,251.126343 1610.929443,252.805481 
	C1611.827271,253.076218 1613.662109,252.065094 1614.288208,251.128143 
	C1620.514404,241.812500 1631.460815,238.169220 1642.073730,242.068024 
	C1647.109741,243.918076 1650.063477,248.686249 1649.711548,254.668457 
	C1647.570435,255.100845 1645.345947,255.540466 1643.125854,255.999969 
	C1631.813477,258.341370 1620.330688,260.079346 1609.240234,263.208191 
	C1598.686768,266.185516 1592.581177,274.341675 1591.227051,285.025909 
	C1589.984741,294.828369 1592.496704,303.988556 1600.896240,310.345734 
	C1613.015747,319.518585 1626.302124,318.644073 1639.523682,313.589325 
	C1644.209229,311.797974 1648.166138,308.100403 1652.799683,305.046326 
	C1652.930420,308.037628 1653.049927,310.769531 1653.178833,313.714233 
	C1659.145996,313.714233 1664.869873,313.714233 1670.626953,313.714233 
	C1670.781494,312.978424 1670.965698,312.509796 1670.966187,312.040985 
	C1670.987183,291.379578 1671.195068,270.715149 1670.887817,250.058411 
	C1670.781128,242.888260 1667.850708,236.468521 1662.702271,231.160751 
	C1654.431030,222.633530 1643.472534,221.396164 1632.783691,221.229950 
	C1618.884888,221.013794 1606.275757,225.178085 1597.912476,238.457596 
M1308.138306,314.620483 
	C1324.644531,319.684265 1339.650269,317.551788 1353.016602,303.980377 
	C1353.016602,308.079681 1353.016602,310.810028 1353.016602,313.694275 
	C1359.196655,313.694275 1364.916016,313.694275 1371.000000,313.694275 
	C1371.000000,311.931152 1371.000000,310.460083 1371.000000,308.989014 
	C1371.000000,289.175537 1371.017334,269.362030 1370.992920,249.548584 
	C1370.980225,239.283569 1363.278198,228.407425 1353.522583,225.026428 
	C1344.497803,221.898743 1335.406006,220.706970 1325.672852,221.767395 
	C1314.925049,222.938354 1306.572144,227.527573 1300.100342,235.636322 
	C1297.496338,238.898788 1296.199951,243.204910 1294.143066,247.371002 
	C1301.287598,249.542770 1307.297119,251.369492 1313.210449,253.167007 
	C1318.678101,243.193481 1326.591309,239.288864 1338.260864,241.083710 
	C1345.748047,242.235306 1350.134521,246.779663 1350.728394,254.599075 
	C1348.367920,255.059662 1345.965698,255.504761 1343.573608,255.999130 
	C1332.431030,258.301788 1321.135376,260.054077 1310.192627,263.081146 
	C1298.174438,266.405701 1291.897461,275.526367 1291.019653,288.582001 
	C1290.298950,299.299805 1296.632202,309.092407 1308.138306,314.620483 
M702.000000,272.511597 
	C702.649658,266.342316 702.679260,260.025513 704.103149,254.040436 
	C705.960449,246.233795 713.906616,240.689224 722.039612,241.075775 
	C732.297607,241.563339 737.565247,244.844284 739.726440,253.580917 
	C741.943542,262.543488 742.446350,272.019867 742.882568,281.309723 
	C743.387085,292.054016 743.000000,302.840179 743.000000,313.650421 
	C750.298035,313.650421 757.013428,313.650421 762.991516,313.650421 
	C762.991516,292.899963 763.443787,272.488556 762.756409,252.115570 
	C762.501648,244.565399 759.162109,237.391769 753.914490,231.318832 
	C744.096436,219.956436 724.045898,218.700928 711.113708,224.521225 
	C706.952698,226.393875 703.279480,229.350189 699.191650,231.931641 
	C699.031494,229.146027 698.892395,226.725510 698.757507,224.379913 
	C692.312744,224.379913 686.259277,224.379913 680.246948,224.379913 
	C680.246948,254.345779 680.246948,283.931061 680.246948,313.692566 
	C687.543518,313.692566 694.591125,313.692566 702.000000,313.692566 
	C702.000000,300.094727 702.000000,286.801178 702.000000,272.511597 
M573.000000,244.500198 
	C573.000000,237.745773 573.000000,230.991348 573.000000,224.242828 
	C565.681702,224.242828 559.085327,224.242828 552.000000,224.242828 
	C552.000000,226.096619 552.000061,227.714981 552.000061,229.333344 
	C552.000000,242.821976 552.399597,256.326813 551.853516,269.793304 
	C551.512878,278.193146 550.773254,286.725952 543.535278,293.085571 
	C535.283936,300.335510 519.524597,298.155060 515.223816,288.165253 
	C512.898926,282.764984 511.394196,276.634033 511.185547,270.773438 
	C510.636658,255.355377 511.000000,239.904846 511.000000,224.312622 
	C503.444244,224.312622 496.397308,224.312622 490.021088,224.312622 
	C490.021088,244.848663 489.540955,265.084991 490.257050,285.278900 
	C490.544220,293.376984 494.362213,300.965027 499.843201,307.355743 
	C509.300537,318.382782 529.688843,319.489990 542.386841,313.771667 
	C546.293884,312.012238 549.802490,309.368073 553.813538,306.934875 
	C553.953247,309.434540 554.069641,311.517731 554.190430,313.679504 
	C560.550110,313.679504 566.608215,313.679504 573.000000,313.679504 
	C573.000000,290.740479 573.000000,268.120300 573.000000,244.500198 
M855.498230,224.000000 
	C852.076477,224.000000 848.654785,224.000000 845.000000,224.000000 
	C845.000000,236.365479 844.871582,248.007828 845.040344,259.645874 
	C845.176880,269.067932 845.176392,278.536407 846.151245,287.888947 
	C847.052673,296.536102 850.811157,304.336670 857.756714,309.876556 
	C868.579285,318.508606 880.994019,318.804413 893.568359,314.964783 
	C898.832336,313.357391 903.628113,310.216888 908.763428,307.711639 
	C908.921692,309.417633 909.124817,311.606812 909.324646,313.759766 
	C915.645447,313.759766 921.575745,313.759766 927.722656,313.759766 
	C927.722656,283.820801 927.722656,254.122360 927.722656,224.336624 
	C920.726318,224.336624 914.012451,224.336624 907.000000,224.336624 
	C907.000000,230.808228 907.107178,236.949387 906.977539,243.085571 
	C906.718750,255.335632 906.881653,267.632202 905.794434,279.813507 
	C905.110413,287.476013 900.776978,293.689148 892.778992,296.064789 
	C884.953796,298.389221 877.987732,297.257935 872.191467,290.786743 
	C867.203735,285.218140 866.364624,278.425079 866.101562,271.609344 
	C865.710083,261.467010 866.000000,251.298370 866.000000,241.140930 
	C866.000000,235.542603 866.000000,229.944275 866.000000,224.000000 
	C862.414490,224.000000 859.446411,224.000000 855.498230,224.000000 
M1839.191284,264.069122 
	C1832.493652,262.070801 1825.781616,260.119568 1819.104126,258.055969 
	C1815.236084,256.860626 1811.210449,255.890686 1807.669800,254.030930 
	C1805.679565,252.985519 1803.261475,250.287659 1803.332642,248.421844 
	C1803.417603,246.198303 1805.486084,243.272552 1807.531494,242.048141 
	C1813.597656,238.416962 1820.244873,238.992050 1826.345337,241.993149 
	C1829.221558,243.408066 1832.484375,245.920120 1833.531494,248.702927 
	C1834.904785,252.352432 1837.074097,252.313889 1839.616943,251.897522 
	C1845.055054,251.006973 1850.433472,249.751801 1856.338379,248.543259 
	C1854.757446,241.089645 1852.018921,234.639984 1846.041138,230.041260 
	C1839.415283,224.943909 1832.002686,222.435959 1823.473511,221.762970 
	C1812.550659,220.901077 1802.431519,221.924103 1793.072998,227.968719 
	C1780.470459,236.108566 1777.072876,256.911285 1790.141724,266.321411 
	C1795.677124,270.307190 1802.625977,272.473541 1809.136963,274.922699 
	C1816.265503,277.604034 1823.800781,279.240479 1830.835449,282.122101 
	C1836.001343,284.238159 1837.075195,291.781189 1832.494995,294.628571 
	C1828.561890,297.073669 1823.327759,298.914062 1818.819092,298.630829 
	C1809.846191,298.067291 1802.785889,293.569275 1800.539917,284.281433 
	C1793.120728,285.389343 1786.100952,286.437561 1779.098511,287.483215 
	C1780.721558,300.578369 1787.928589,309.203674 1799.570679,313.666016 
	C1810.499268,317.854889 1821.864136,318.137634 1833.397461,315.337799 
	C1846.511230,312.154297 1855.054688,304.517426 1856.746948,291.064545 
	C1858.008789,281.034454 1855.880005,271.270447 1839.191284,264.069122 
M827.680054,315.017151 
	C829.297668,315.017151 830.915344,315.017151 832.707397,315.017151 
	C832.707397,308.800507 832.707397,303.068573 832.707397,296.898834 
	C829.962280,297.089264 827.523132,297.382721 825.082703,297.393555 
	C822.534790,297.404846 819.979187,297.215729 817.438232,296.988220 
	C810.762634,296.390472 807.024536,292.326721 807.005432,285.677979 
	C806.982910,277.849274 807.000000,270.020447 807.000000,262.191681 
	C806.999939,255.254425 807.000000,248.317154 807.000000,240.841370 
	C815.968262,240.841370 824.361450,240.841370 832.760193,240.841370 
	C832.760193,235.024231 832.760193,229.758972 832.760193,223.948944 
	C824.143677,223.948944 815.752319,223.948944 806.827820,223.948944 
	C806.827820,215.351562 806.827820,207.291153 806.827820,199.246155 
	C799.677307,199.246155 793.079651,199.246155 785.936707,199.246155 
	C785.936707,207.535034 785.936707,215.595123 785.936707,224.185898 
	C780.004028,224.185898 774.610107,224.185898 769.002441,224.185898 
	C769.002441,228.885361 769.087097,233.038208 768.972778,237.185547 
	C768.896057,239.965317 770.039673,241.101379 772.817200,241.027451 
	C777.088562,240.913773 781.365234,240.997574 786.000000,240.997574 
	C786.000000,243.225342 786.000000,244.858307 786.000000,246.491257 
	C786.000061,261.649078 785.879639,276.808258 786.051758,291.964142 
	C786.135925,299.376465 788.862244,306.178864 795.033447,310.274719 
	C804.656677,316.661682 815.600708,317.305237 827.680054,315.017151 
M1550.500000,314.000000 
	C1562.919678,314.000000 1575.339355,314.000000 1587.750977,314.000000 
	C1587.750977,307.340637 1587.750977,301.408203 1587.750977,294.931335 
	C1570.124023,294.931335 1552.736206,294.931335 1534.816284,294.931335 
	C1534.816284,261.004639 1534.816284,227.623718 1534.816284,194.251038 
	C1527.670044,194.251038 1521.070923,194.251038 1514.303955,194.251038 
	C1514.303955,234.211594 1514.303955,273.920593 1514.303955,314.000000 
	C1526.236206,314.000000 1537.868042,314.000000 1550.500000,314.000000 
M1164.500000,295.000000 
	C1156.744019,295.000000 1148.988037,295.000000 1140.884277,295.000000 
	C1140.884277,261.013885 1140.884277,227.753006 1140.884277,194.305328 
	C1133.798218,194.305328 1127.081909,194.305328 1120.358276,194.305328 
	C1120.358276,234.320969 1120.358276,274.030182 1120.358276,313.760559 
	C1144.645386,313.760559 1168.573364,313.760559 1192.696777,313.760559 
	C1192.696777,307.469482 1192.696777,301.419830 1192.696777,295.000000 
	C1183.432495,295.000000 1174.466187,295.000000 1164.500000,295.000000 
M319.681396,178.790558 
	C325.712921,161.910553 311.660248,147.988998 296.535767,152.067184 
	C288.386993,154.264420 283.230133,159.787048 282.161438,168.163483 
	C281.189301,175.783417 283.965790,182.372711 290.415253,186.851685 
	C300.597809,193.923233 312.421265,190.761703 319.681396,178.790558 
M68.036385,225.192581 
	C67.689323,233.573608 67.661003,241.653610 76.236679,246.864380 
	C83.096458,251.032562 89.892021,251.206604 96.711449,247.613556 
	C105.461830,243.003113 107.222916,234.790375 105.835526,226.039307 
	C104.756325,219.232193 100.306801,214.351456 93.577377,212.022552 
	C82.997955,208.361237 74.470795,212.537430 68.036385,225.192581 
M181.925354,342.429565 
	C173.926056,337.840820 165.959061,337.965210 158.843796,343.815002 
	C152.011414,349.432312 149.983017,358.815552 153.277969,366.560760 
	C155.858765,372.627258 162.648865,378.838165 172.485550,378.120605 
	C181.032745,377.497131 187.848434,372.300354 190.599030,362.887695 
	C192.503342,356.371033 188.669708,346.894257 181.925354,342.429565 
z"/>
<path fill="#1064E8" opacity="1.000000" stroke="none" 
	d="
M239.721237,337.618591 
	C234.927673,350.799591 229.636490,363.138031 220.302414,373.520416 
	C211.879120,382.889740 197.983871,387.835114 186.939392,381.324219 
	C190.593170,377.472504 194.034378,374.677277 200.160873,374.715576 
	C207.796234,374.763336 212.797302,368.754730 216.881699,362.953400 
	C220.431229,357.911713 223.299698,352.328674 225.966553,346.744812 
	C228.614853,341.199799 230.636063,335.355316 232.928070,329.652740 
	C221.825943,325.395935 211.072357,321.205841 200.245773,317.213806 
	C199.013519,316.759430 197.264267,317.122284 195.936646,317.605713 
	C186.764923,320.945770 177.661011,324.472076 168.487274,327.806396 
	C166.478561,328.536499 163.846924,328.295441 164.875214,331.755005 
	C164.946243,331.993958 163.858124,332.693512 163.223648,333.004730 
	C161.176163,334.009033 159.088760,334.931976 156.731247,336.017761 
	C155.704758,332.514313 154.058426,331.893219 150.041779,332.678436 
	C139.302689,334.777863 128.327179,335.680481 117.438156,336.997040 
	C106.074669,338.370911 94.952286,337.216156 84.326103,332.938660 
	C68.107475,326.410065 63.215263,313.550568 66.956879,297.397919 
	C70.018806,284.179565 77.557877,273.319977 86.293144,263.161102 
	C103.174965,243.528046 123.293793,227.831207 144.904861,213.805740 
	C146.792969,212.580368 147.411591,208.841705 147.912460,206.139313 
	C149.485245,197.653458 150.720016,189.104965 152.203598,179.844833 
	C146.966827,178.656021 141.219116,176.814453 135.337357,176.137482 
	C125.690750,175.027161 115.899765,173.724792 106.278656,174.306366 
	C98.852875,174.755264 91.103127,176.955734 84.388321,180.213654 
	C76.410110,184.084610 72.041481,191.353439 76.697754,206.259750 
	C76.792976,206.564590 76.809624,206.893967 76.861916,207.215775 
	C74.598663,208.775757 72.336426,210.331863 69.225456,212.471786 
	C68.118217,209.147751 66.422371,206.115173 66.195084,202.976273 
	C65.589043,194.606781 65.254036,186.161194 70.989235,178.933838 
	C76.143715,172.438293 83.274292,169.054611 90.893181,167.201477 
	C104.992294,163.772171 119.296967,164.150726 133.547150,166.787231 
	C139.642014,167.914871 145.820709,168.683624 151.823959,170.170181 
	C154.578247,170.852203 155.183121,170.579910 156.211166,167.827240 
	C159.514130,158.983276 162.648987,149.925079 167.310883,141.787155 
	C171.171661,135.047729 176.356750,128.610611 182.280334,123.609093 
	C192.916092,114.628868 207.439468,116.340279 217.840530,126.299438 
	C226.951935,135.023727 232.567551,145.840759 236.971405,157.415863 
	C238.641495,161.805542 240.114960,166.270020 241.660019,170.649246 
	C252.432816,168.724380 263.300476,166.782578 274.999573,164.692215 
	C274.999573,166.880249 274.867615,168.626007 275.027557,170.344604 
	C275.342621,173.730316 274.024200,174.714371 270.547638,175.149704 
	C262.312714,176.180923 254.173492,177.983383 246.005127,179.524704 
	C245.407013,179.637573 244.885666,180.157242 244.617416,180.316422 
	C246.094864,189.579178 247.328629,198.751053 249.149475,207.804855 
	C249.658722,210.336914 251.394333,213.165161 253.428314,214.758530 
	C265.527954,224.237030 277.842773,233.443802 290.217224,242.562881 
	C291.227142,243.307129 293.898315,243.394882 294.659424,242.640076 
	C306.632172,230.766220 317.149109,217.876526 321.429504,201.051239 
	C321.949188,199.008499 322.550598,196.525192 321.864349,194.721619 
	C319.606018,188.786484 324.835999,186.166061 326.511627,180.983963 
	C332.599945,189.785645 331.964630,198.347687 329.549713,206.743408 
	C326.207001,218.364624 319.894165,228.480652 311.935883,237.555908 
	C308.024078,242.016754 304.057037,246.429184 300.279877,250.678085 
	C306.808441,258.908630 313.690338,266.849884 319.725220,275.389679 
	C326.385345,284.814240 331.161591,295.028076 331.113708,307.152100 
	C331.062439,320.127625 323.027679,328.901276 313.117798,332.823700 
	C298.272217,338.699768 282.755615,338.435791 267.212708,336.084961 
	C258.685730,334.795258 250.174927,333.398560 241.429718,332.014130 
	C240.893967,333.875092 240.406509,335.568268 239.721237,337.618591 
M154.478134,270.977051 
	C154.652130,273.607239 155.024902,276.243042 154.950897,278.866211 
	C154.853806,282.308136 155.854874,284.477692 159.247299,286.185394 
	C171.221954,292.213257 182.936615,298.756470 194.879593,304.849976 
	C196.471344,305.662140 199.130814,305.692383 200.750031,304.928253 
	C211.674683,299.772614 222.551743,294.493134 233.224442,288.838898 
	C237.073776,286.799591 241.768433,284.997650 242.003464,279.283691 
	C242.233994,273.679413 242.988220,268.080017 242.933716,262.484100 
	C242.807755,249.551483 242.471786,236.615677 241.865616,223.697861 
	C241.758560,221.416534 240.539780,218.133377 238.798203,217.152359 
	C226.696228,210.335281 214.358582,203.929749 201.987045,197.606415 
	C200.356049,196.772766 197.709961,196.354294 196.201035,197.097610 
	C182.308838,203.940979 168.563690,211.082840 154.084076,218.491714 
	C154.084076,235.941803 154.084076,253.030502 154.478134,270.977051 
M275.493622,272.004486 
	C268.247803,277.019928 260.894684,281.890930 253.824097,287.142303 
	C251.807510,288.640015 249.657806,291.055542 249.205078,293.370209 
	C247.330460,302.954163 246.082748,312.660767 244.527008,322.831024 
	C253.135300,324.476532 262.160614,326.714325 271.322327,327.787628 
	C278.392761,328.615936 285.708435,328.625244 292.777832,327.809265 
	C299.134644,327.075592 305.646240,325.491455 311.475006,322.900085 
	C319.716217,319.236206 323.569733,310.506104 321.833191,302.674255 
	C317.742523,284.225189 305.353058,271.165222 293.179474,257.757690 
	C287.249420,262.500305 281.627869,266.996155 275.493622,272.004486 
M75.216812,311.649139 
	C77.337814,314.722565 78.876907,318.554657 81.696465,320.717346 
	C88.324547,325.801270 96.277664,327.645294 104.626846,328.034180 
	C121.017982,328.797607 137.055206,326.824432 152.380081,322.405121 
	C150.919495,313.746399 149.400955,305.087250 148.020233,296.406189 
	C147.382263,292.395020 146.339890,289.302094 142.419052,286.636902 
	C129.194824,277.647705 116.466507,267.928925 103.022423,258.104706 
	C98.565521,263.317871 93.421478,268.677277 89.041412,274.601593 
	C81.107971,285.331940 73.682350,296.419098 75.216812,311.649139 
M188.610519,181.919632 
	C193.196350,183.116394 197.167099,186.460648 202.632462,184.208298 
	C212.433426,180.169174 222.505463,176.787842 232.756821,173.024185 
	C230.370438,166.762482 228.377274,160.161148 225.379700,154.052704 
	C222.378769,147.937317 219.120331,141.653656 214.655197,136.612534 
	C205.257233,126.002213 195.798889,122.591896 184.559402,134.028992 
	C173.736984,145.041702 168.751053,159.191360 164.077362,173.248749 
	C172.283569,176.071091 180.120132,178.766296 188.610519,181.919632 
M112.059250,250.430191 
	C112.021591,251.087036 111.689240,252.097137 111.990143,252.348160 
	C117.147232,256.650330 122.273956,261.002563 127.630417,265.048431 
	C133.301453,269.331970 139.207367,273.304565 145.496368,277.756775 
	C145.496368,259.572113 145.496368,242.406906 145.496368,223.684448 
	C133.952621,232.892670 123.260330,241.421692 112.059250,250.430191 
M282.467194,254.024628 
	C283.499725,253.106888 284.532257,252.189163 286.188568,250.716995 
	C274.849884,242.098419 263.641937,233.579208 251.500198,224.350220 
	C251.500198,243.073578 251.500198,259.911530 251.500198,278.207489 
	C262.204102,269.891907 272.090698,262.211243 282.467194,254.024628 
M167.974304,184.476929 
	C165.852463,183.915756 163.730606,183.354599 161.334641,182.720932 
	C159.786194,190.787231 158.360168,198.215866 156.798767,206.349655 
	C166.911530,201.154907 176.288422,196.338150 186.760895,190.958618 
	C179.979706,188.690430 174.326569,186.799545 167.974304,184.476929 
M216.427963,188.897659 
	C214.654449,189.573639 212.880936,190.249634 210.554749,191.136276 
	C220.656082,196.337265 230.043396,201.170624 240.084961,206.340836 
	C238.588806,198.840210 237.242325,192.347046 236.019104,185.830750 
	C235.531555,183.233505 234.396698,182.605057 231.868744,183.525299 
	C226.984482,185.303253 222.004105,186.817154 216.427963,188.897659 
M159.905273,310.721344 
	C160.453003,313.689941 161.000732,316.658569 161.634506,320.093567 
	C170.105087,317.207733 177.916946,314.546326 186.809967,311.516541 
	C176.406784,306.219482 167.061951,301.461304 156.984406,296.330048 
	C157.973877,301.744080 158.726257,305.860748 159.905273,310.721344 
M216.036118,308.464600 
	C214.409821,309.384521 212.783524,310.304413 210.381470,311.663116 
	C219.479584,313.994232 226.775650,319.187836 235.659271,318.915222 
	C237.030945,311.331940 238.305389,304.286163 239.764694,296.218353 
	C231.364029,300.528351 224.017120,304.297729 216.036118,308.464600 
z"/>
<path fill="#1064E8" opacity="1.000000" stroke="none" 
	d="
M474.015259,222.093018 
	C483.790771,246.899826 482.562500,270.719177 469.973541,294.405701 
	C473.049805,297.004761 476.331787,299.777649 479.666534,302.595062 
	C474.778229,308.054291 470.722198,312.584015 465.972931,317.888000 
	C463.038086,314.028839 460.345734,310.488464 458.712982,308.341492 
	C448.481476,311.457245 440.467255,314.911896 432.114441,316.244720 
	C410.094208,319.758453 384.835999,312.623413 373.191681,289.389008 
	C361.417694,265.895844 361.506958,241.792358 373.399933,218.600861 
	C382.049957,201.733139 397.042328,193.127090 416.238739,191.919724 
	C426.444885,191.277817 436.407135,191.789749 445.972046,195.514053 
	C458.749359,200.489197 467.919586,209.455124 474.015259,222.093018 
M449.501831,274.000702 
	C450.684174,275.073517 451.866516,276.146362 453.323273,277.468170 
	C454.059296,276.185150 454.614471,275.414429 454.973267,274.561127 
	C458.254913,266.756287 458.173889,258.526245 458.002869,250.283463 
	C457.638550,232.721191 448.785706,213.816406 426.873749,211.586441 
	C413.584106,210.233963 398.333588,216.555374 393.036926,227.821426 
	C386.664764,241.375107 385.725403,255.333832 388.918732,269.940338 
	C394.579224,295.831909 422.281250,303.258423 441.307190,291.996063 
	C437.802521,288.745697 434.448761,285.635345 430.889404,282.334290 
	C434.166412,279.153564 437.459076,276.501556 440.065033,273.292023 
	C443.396393,269.188995 446.102844,269.359192 449.501831,274.000702 
z"/>
<path fill="#1064E8" opacity="1.000000" stroke="none" 
	d="
M996.333984,247.859161 
	C992.779846,242.568741 986.066101,239.334259 981.160461,240.407303 
	C972.796814,242.236740 967.864197,246.632111 967.094971,253.956985 
	C966.354736,261.006775 966.133118,268.129791 966.044495,275.225128 
	C965.886353,287.882935 966.000000,300.544128 966.000000,313.601654 
	C959.113342,313.601654 952.392639,313.601654 945.332886,313.601654 
	C945.332886,283.971802 945.332886,254.255157 945.332886,224.268707 
	C951.509399,224.268707 957.577698,224.268707 963.801636,224.268707 
	C963.947083,226.573227 964.077942,228.646454 964.179138,230.250244 
	C969.695374,227.751617 974.859131,224.402695 980.500122,223.062805 
	C993.165283,220.054520 1005.112122,221.412384 1013.868896,232.674500 
	C1016.403809,235.934601 1017.608154,232.954514 1018.668762,231.614990 
	C1028.694336,218.952423 1055.130615,218.693909 1065.312256,229.678833 
	C1070.479736,235.253830 1073.650391,241.803131 1073.814087,248.987823 
	C1074.302979,270.444611 1073.989746,291.919647 1073.989746,313.692810 
	C1066.920776,313.692810 1060.203125,313.692810 1053.000000,313.692810 
	C1053.000000,308.562286 1053.000122,303.605713 1053.000122,298.649139 
	C1053.000000,284.983185 1053.039917,271.317047 1052.984985,257.651306 
	C1052.950317,249.028625 1046.300049,241.839127 1040.935425,240.996216 
	C1027.933716,238.953323 1020.277771,246.685547 1020.067932,259.098877 
	C1019.791870,275.426697 1020.000061,291.762695 1020.000000,308.095184 
	C1019.999939,309.887634 1020.000000,311.680084 1020.000000,313.733276 
	C1012.960632,313.733276 1006.359985,313.733276 999.000000,313.733276 
	C999.000000,312.035828 999.000000,310.285004 999.000000,308.534180 
	C999.000000,292.035034 999.140076,275.533783 998.891113,259.038391 
	C998.836121,255.392365 997.404541,251.767105 996.333984,247.859161 
z"/>
<path fill="#1064E8" opacity="1.000000" stroke="none" 
	d="
M1387.000000,316.000000 
	C1387.000000,285.215424 1387.000000,254.930832 1387.000000,224.323730 
	C1393.398193,224.323730 1399.474121,224.323730 1405.683960,224.323730 
	C1405.877930,225.415436 1406.075317,226.526001 1406.292480,227.747665 
	C1406.794922,227.714111 1407.290771,227.779709 1407.717651,227.637741 
	C1414.281006,225.454926 1420.727417,221.867706 1427.415771,221.342712 
	C1439.463989,220.397003 1450.309204,224.191895 1459.185669,233.330063 
	C1475.874268,250.510681 1476.005615,283.552429 1461.869751,302.542358 
	C1454.324585,312.678314 1436.312378,319.660706 1423.977417,316.486877 
	C1418.673828,315.122253 1413.431885,313.518677 1407.864990,311.939423 
	C1407.864990,325.674561 1407.864990,339.601166 1407.864990,353.759705 
	C1400.908813,353.759705 1394.312256,353.759705 1387.000000,353.759705 
	C1387.000000,341.331451 1387.000000,328.915741 1387.000000,316.000000 
M1449.988770,264.893463 
	C1448.405640,260.151978 1447.317749,255.166443 1445.128540,250.723709 
	C1441.445068,243.248947 1434.597534,239.760483 1426.600220,240.182602 
	C1419.301636,240.567825 1412.721436,243.194031 1409.447388,250.957428 
	C1404.629395,262.382294 1404.467896,274.007294 1408.380005,285.438995 
	C1410.919189,292.858551 1416.888428,297.318634 1425.026978,297.974365 
	C1434.164673,298.710602 1441.455078,295.617126 1445.946045,287.229126 
	C1449.538086,280.520599 1450.307007,273.263397 1449.988770,264.893463 
z"/>
<path fill="#1064E8" opacity="1.000000" stroke="none" 
	d="
M1687.000000,263.000000 
	C1687.000000,239.874222 1687.000000,217.248444 1687.000000,194.312225 
	C1694.066162,194.312225 1700.781250,194.312225 1707.866211,194.312225 
	C1707.866211,205.068695 1707.866211,215.665955 1707.866211,225.801941 
	C1713.939209,224.403290 1719.706787,222.766754 1725.583862,221.787796 
	C1736.640015,219.946136 1746.867188,222.807449 1755.228760,229.935623 
	C1770.084106,242.599457 1773.593994,259.335083 1771.173828,278.075317 
	C1770.005493,287.122040 1766.780518,294.985229 1761.405884,302.245941 
	C1754.378540,311.739471 1744.728271,316.103027 1733.351807,316.935608 
	C1724.165527,317.607849 1715.356812,316.126892 1707.721313,310.359772 
	C1707.261108,310.012207 1706.471924,310.100372 1705.536865,309.932007 
	C1705.213867,311.264801 1704.925171,312.455475 1704.594971,313.817749 
	C1698.965088,313.817749 1693.339966,313.817749 1687.000000,313.817749 
	C1687.000000,296.996979 1687.000000,280.248474 1687.000000,263.000000 
M1731.410400,240.981735 
	C1724.614136,237.915375 1713.182007,242.489578 1709.928101,249.383072 
	C1703.816406,262.331635 1703.310547,275.392151 1709.799438,288.299500 
	C1716.388916,301.407013 1737.198730,300.599854 1743.630737,290.047638 
	C1748.991455,281.252899 1751.059570,272.255219 1749.079468,262.069061 
	C1747.112793,251.951569 1743.093262,243.851151 1731.410400,240.981735 
z"/>
<path fill="#1064E8" opacity="1.000000" stroke="none" 
	d="
M1277.007080,300.962646 
	C1265.253662,314.391388 1250.927368,318.412170 1233.545898,316.276917 
	C1213.926270,313.866608 1197.916504,294.622467 1196.761475,276.659515 
	C1196.082764,266.105835 1197.059326,256.216064 1201.015015,246.557800 
	C1206.340210,233.556046 1219.926514,223.582062 1233.935303,221.848969 
	C1245.651001,220.399536 1256.309814,221.969696 1266.152100,228.575516 
	C1276.057251,235.223419 1280.924805,245.012268 1282.892456,256.315979 
	C1283.925537,262.251526 1283.907349,268.370056 1284.408813,275.000000 
	C1272.810791,275.000000 1262.040527,275.000000 1251.270142,275.000000 
	C1240.635498,275.000000 1230.000977,275.000000 1219.356934,275.000000 
	C1219.719727,285.071045 1225.244507,294.481079 1234.978638,296.401154 
	C1244.480103,298.275391 1254.972290,297.751129 1262.099976,284.334259 
	C1268.956543,286.333008 1275.896240,288.355988 1283.681030,290.625275 
	C1281.343872,294.158997 1279.211792,297.382935 1277.007080,300.962646 
M1261.008789,253.650208 
	C1257.498901,240.544891 1247.306152,238.938934 1237.223755,240.170563 
	C1227.724365,241.331009 1220.079346,250.260010 1220.343750,258.805176 
	C1234.095703,258.805176 1247.853638,258.805176 1262.216919,258.805176 
	C1261.795166,257.146912 1261.455078,255.810272 1261.008789,253.650208 
z"/>
<path fill="#1064E8" opacity="1.000000" stroke="none" 
	d="
M663.403687,242.872223 
	C664.112000,254.932327 664.727722,266.665314 664.951538,278.405762 
	C665.173279,290.037476 665.000000,301.676697 665.000000,313.655182 
	C658.665405,313.655182 652.610474,313.655182 646.178467,313.655182 
	C646.065674,311.221771 645.953430,308.800720 645.810242,305.711884 
	C643.589111,307.176270 641.492859,308.107971 639.986755,309.625366 
	C631.062073,318.616943 605.318176,319.093262 595.180115,311.295898 
	C587.121094,305.097534 583.553772,292.437164 585.432861,283.097687 
	C588.504578,267.830994 600.128784,262.727478 613.504578,260.043152 
	C623.553406,258.026489 633.680786,256.401520 643.745544,254.607147 
	C643.629761,247.222504 639.144836,241.517853 632.283936,241.120804 
	C622.473816,240.553070 612.610779,240.557022 607.798889,251.896912 
	C607.530640,252.528885 605.242065,252.805969 604.111572,252.483887 
	C598.803711,250.971710 593.572021,249.192093 588.310486,247.507080 
	C592.179382,232.200195 603.288208,223.584579 619.411560,221.837936 
	C630.511230,220.635513 640.789246,221.831543 650.734314,226.900726 
	C657.345764,230.270706 661.100830,235.671448 663.403687,242.872223 
M615.793274,278.047241 
	C614.329041,278.778076 612.891357,279.568970 611.395569,280.228088 
	C607.455200,281.964447 605.845154,284.904572 605.930420,289.231110 
	C606.015320,293.539703 607.818176,296.456726 611.640564,298.175964 
	C620.550537,302.183533 628.826843,300.084930 635.918579,294.339783 
	C642.400513,289.088684 644.229492,281.496368 643.816772,272.046326 
	C634.284119,274.081482 625.425415,275.972748 615.793274,278.047241 
z"/>
<path fill="#1064E8" opacity="1.000000" stroke="none" 
	d="
M1597.986328,238.093445 
	C1606.275757,225.178085 1618.884888,221.013794 1632.783691,221.229950 
	C1643.472534,221.396164 1654.431030,222.633530 1662.702271,231.160751 
	C1667.850708,236.468521 1670.781128,242.888260 1670.887817,250.058411 
	C1671.195068,270.715149 1670.987183,291.379578 1670.966187,312.040985 
	C1670.965698,312.509796 1670.781494,312.978424 1670.626953,313.714233 
	C1664.869873,313.714233 1659.145996,313.714233 1653.178833,313.714233 
	C1653.049927,310.769531 1652.930420,308.037628 1652.799683,305.046326 
	C1648.166138,308.100403 1644.209229,311.797974 1639.523682,313.589325 
	C1626.302124,318.644073 1613.015747,319.518585 1600.896240,310.345734 
	C1592.496704,303.988556 1589.984741,294.828369 1591.227051,285.025909 
	C1592.581177,274.341675 1598.686768,266.185516 1609.240234,263.208191 
	C1620.330688,260.079346 1631.813477,258.341370 1643.125854,255.999969 
	C1645.345947,255.540466 1647.570435,255.100845 1649.711548,254.668457 
	C1650.063477,248.686249 1647.109741,243.918076 1642.073730,242.068024 
	C1631.460815,238.169220 1620.514404,241.812500 1614.288208,251.128143 
	C1613.662109,252.065094 1611.827271,253.076218 1610.929443,252.805481 
	C1605.360596,251.126343 1599.899292,249.090607 1593.873047,246.988678 
	C1595.328369,243.915222 1596.620483,241.186401 1597.986328,238.093445 
M1618.976807,298.950836 
	C1636.370483,304.078583 1653.075806,289.924927 1649.219482,272.769440 
	C1646.033691,273.176819 1642.730591,273.282684 1639.596069,274.064209 
	C1632.529419,275.826111 1625.432861,277.599396 1618.571899,280.005280 
	C1614.527466,281.423523 1612.027710,284.720581 1611.957520,289.481110 
	C1611.888794,294.128387 1614.525146,296.708099 1618.976807,298.950836 
z"/>
<path fill="#1064E8" opacity="1.000000" stroke="none" 
	d="
M1307.835083,314.367004 
	C1296.632202,309.092407 1290.298950,299.299805 1291.019653,288.582001 
	C1291.897461,275.526367 1298.174438,266.405701 1310.192627,263.081146 
	C1321.135376,260.054077 1332.431030,258.301788 1343.573608,255.999130 
	C1345.965698,255.504761 1348.367920,255.059662 1350.728394,254.599075 
	C1350.134521,246.779663 1345.748047,242.235306 1338.260864,241.083710 
	C1326.591309,239.288864 1318.678101,243.193481 1313.210449,253.167007 
	C1307.297119,251.369492 1301.287598,249.542770 1294.143066,247.371002 
	C1296.199951,243.204910 1297.496338,238.898788 1300.100342,235.636322 
	C1306.572144,227.527573 1314.925049,222.938354 1325.672852,221.767395 
	C1335.406006,220.706970 1344.497803,221.898743 1353.522583,225.026428 
	C1363.278198,228.407425 1370.980225,239.283569 1370.992920,249.548584 
	C1371.017334,269.362030 1371.000000,289.175537 1371.000000,308.989014 
	C1371.000000,310.460083 1371.000000,311.931152 1371.000000,313.694275 
	C1364.916016,313.694275 1359.196655,313.694275 1353.016602,313.694275 
	C1353.016602,310.810028 1353.016602,308.079681 1353.016602,303.980377 
	C1339.650269,317.551788 1324.644531,319.684265 1307.835083,314.367004 
M1322.662598,277.991333 
	C1321.015869,278.686951 1319.171631,279.110535 1317.762085,280.133057 
	C1314.510498,282.491821 1311.360718,285.178253 1312.045288,289.815765 
	C1312.711060,294.327148 1315.197754,297.460114 1319.654907,299.034576 
	C1328.357422,302.108643 1341.070190,298.363495 1345.763672,290.162781 
	C1348.601318,285.204712 1349.677368,279.238403 1352.019043,272.325378 
	C1344.893188,273.402130 1339.558350,274.054962 1334.289795,275.057098 
	C1330.632690,275.752716 1327.067261,276.929016 1322.662598,277.991333 
z"/>
<path fill="#1064E8" opacity="1.000000" stroke="none" 
	d="
M702.000000,273.009613 
	C702.000000,286.801178 702.000000,300.094727 702.000000,313.692566 
	C694.591125,313.692566 687.543518,313.692566 680.246948,313.692566 
	C680.246948,283.931061 680.246948,254.345779 680.246948,224.379913 
	C686.259277,224.379913 692.312744,224.379913 698.757507,224.379913 
	C698.892395,226.725510 699.031494,229.146027 699.191650,231.931641 
	C703.279480,229.350189 706.952698,226.393875 711.113708,224.521225 
	C724.045898,218.700928 744.096436,219.956436 753.914490,231.318832 
	C759.162109,237.391769 762.501648,244.565399 762.756409,252.115570 
	C763.443787,272.488556 762.991516,292.899963 762.991516,313.650421 
	C757.013428,313.650421 750.298035,313.650421 743.000000,313.650421 
	C743.000000,302.840179 743.387085,292.054016 742.882568,281.309723 
	C742.446350,272.019867 741.943542,262.543488 739.726440,253.580917 
	C737.565247,244.844284 732.297607,241.563339 722.039612,241.075775 
	C713.906616,240.689224 705.960449,246.233795 704.103149,254.040436 
	C702.679260,260.025513 702.649658,266.342316 702.000000,273.009613 
z"/>
<path fill="#1064E8" opacity="1.000000" stroke="none" 
	d="
M573.000000,245.000183 
	C573.000000,268.120300 573.000000,290.740479 573.000000,313.679504 
	C566.608215,313.679504 560.550110,313.679504 554.190430,313.679504 
	C554.069641,311.517731 553.953247,309.434540 553.813538,306.934875 
	C549.802490,309.368073 546.293884,312.012238 542.386841,313.771667 
	C529.688843,319.489990 509.300537,318.382782 499.843201,307.355743 
	C494.362213,300.965027 490.544220,293.376984 490.257050,285.278900 
	C489.540955,265.084991 490.021088,244.848663 490.021088,224.312622 
	C496.397308,224.312622 503.444244,224.312622 511.000000,224.312622 
	C511.000000,239.904846 510.636658,255.355377 511.185547,270.773438 
	C511.394196,276.634033 512.898926,282.764984 515.223816,288.165253 
	C519.524597,298.155060 535.283936,300.335510 543.535278,293.085571 
	C550.773254,286.725952 551.512878,278.193146 551.853516,269.793304 
	C552.399597,256.326813 552.000000,242.821976 552.000061,229.333344 
	C552.000061,227.714981 552.000000,226.096619 552.000000,224.242828 
	C559.085327,224.242828 565.681702,224.242828 573.000000,224.242828 
	C573.000000,230.991348 573.000000,237.745773 573.000000,245.000183 
z"/>
<path fill="#1064E8" opacity="1.000000" stroke="none" 
	d="
M855.988281,224.000000 
	C859.446411,224.000000 862.414490,224.000000 866.000000,224.000000 
	C866.000000,229.944275 866.000000,235.542603 866.000000,241.140930 
	C866.000000,251.298370 865.710083,261.467010 866.101562,271.609344 
	C866.364624,278.425079 867.203735,285.218140 872.191467,290.786743 
	C877.987732,297.257935 884.953796,298.389221 892.778992,296.064789 
	C900.776978,293.689148 905.110413,287.476013 905.794434,279.813507 
	C906.881653,267.632202 906.718750,255.335632 906.977539,243.085571 
	C907.107178,236.949387 907.000000,230.808228 907.000000,224.336624 
	C914.012451,224.336624 920.726318,224.336624 927.722656,224.336624 
	C927.722656,254.122360 927.722656,283.820801 927.722656,313.759766 
	C921.575745,313.759766 915.645447,313.759766 909.324646,313.759766 
	C909.124817,311.606812 908.921692,309.417633 908.763428,307.711639 
	C903.628113,310.216888 898.832336,313.357391 893.568359,314.964783 
	C880.994019,318.804413 868.579285,318.508606 857.756714,309.876556 
	C850.811157,304.336670 847.052673,296.536102 846.151245,287.888947 
	C845.176392,278.536407 845.176880,269.067932 845.040344,259.645874 
	C844.871582,248.007828 845.000000,236.365479 845.000000,224.000000 
	C848.654785,224.000000 852.076477,224.000000 855.988281,224.000000 
z"/>
<path fill="#1064E8" opacity="1.000000" stroke="none" 
	d="
M1839.544189,264.239075 
	C1855.880005,271.270447 1858.008789,281.034454 1856.746948,291.064545 
	C1855.054688,304.517426 1846.511230,312.154297 1833.397461,315.337799 
	C1821.864136,318.137634 1810.499268,317.854889 1799.570679,313.666016 
	C1787.928589,309.203674 1780.721558,300.578369 1779.098511,287.483215 
	C1786.100952,286.437561 1793.120728,285.389343 1800.539917,284.281433 
	C1802.785889,293.569275 1809.846191,298.067291 1818.819092,298.630829 
	C1823.327759,298.914062 1828.561890,297.073669 1832.494995,294.628571 
	C1837.075195,291.781189 1836.001343,284.238159 1830.835449,282.122101 
	C1823.800781,279.240479 1816.265503,277.604034 1809.136963,274.922699 
	C1802.625977,272.473541 1795.677124,270.307190 1790.141724,266.321411 
	C1777.072876,256.911285 1780.470459,236.108566 1793.072998,227.968719 
	C1802.431519,221.924103 1812.550659,220.901077 1823.473511,221.762970 
	C1832.002686,222.435959 1839.415283,224.943909 1846.041138,230.041260 
	C1852.018921,234.639984 1854.757446,241.089645 1856.338379,248.543259 
	C1850.433472,249.751801 1845.055054,251.006973 1839.616943,251.897522 
	C1837.074097,252.313889 1834.904785,252.352432 1833.531494,248.702927 
	C1832.484375,245.920120 1829.221558,243.408066 1826.345337,241.993149 
	C1820.244873,238.992050 1813.597656,238.416962 1807.531494,242.048141 
	C1805.486084,243.272552 1803.417603,246.198303 1803.332642,248.421844 
	C1803.261475,250.287659 1805.679565,252.985519 1807.669800,254.030930 
	C1811.210449,255.890686 1815.236084,256.860626 1819.104126,258.055969 
	C1825.781616,260.119568 1832.493652,262.070801 1839.544189,264.239075 
z"/>
<path fill="#1064E8" opacity="1.000000" stroke="none" 
	d="
M827.221375,315.057434 
	C815.600708,317.305237 804.656677,316.661682 795.033447,310.274719 
	C788.862244,306.178864 786.135925,299.376465 786.051758,291.964142 
	C785.879639,276.808258 786.000061,261.649078 786.000000,246.491257 
	C786.000000,244.858307 786.000000,243.225342 786.000000,240.997574 
	C781.365234,240.997574 777.088562,240.913773 772.817200,241.027451 
	C770.039673,241.101379 768.896057,239.965317 768.972778,237.185547 
	C769.087097,233.038208 769.002441,228.885361 769.002441,224.185898 
	C774.610107,224.185898 780.004028,224.185898 785.936707,224.185898 
	C785.936707,215.595123 785.936707,207.535034 785.936707,199.246155 
	C793.079651,199.246155 799.677307,199.246155 806.827820,199.246155 
	C806.827820,207.291153 806.827820,215.351562 806.827820,223.948944 
	C815.752319,223.948944 824.143677,223.948944 832.760193,223.948944 
	C832.760193,229.758972 832.760193,235.024231 832.760193,240.841370 
	C824.361450,240.841370 815.968262,240.841370 807.000000,240.841370 
	C807.000000,248.317154 806.999939,255.254425 807.000000,262.191681 
	C807.000000,270.020447 806.982910,277.849274 807.005432,285.677979 
	C807.024536,292.326721 810.762634,296.390472 817.438232,296.988220 
	C819.979187,297.215729 822.534790,297.404846 825.082703,297.393555 
	C827.523132,297.382721 829.962280,297.089264 832.707397,296.898834 
	C832.707397,303.068573 832.707397,308.800507 832.707397,315.017151 
	C830.915344,315.017151 829.297668,315.017151 827.221375,315.057434 
z"/>
<path fill="#1064E8" opacity="1.000000" stroke="none" 
	d="
M1550.000000,314.000000 
	C1537.868042,314.000000 1526.236206,314.000000 1514.303955,314.000000 
	C1514.303955,273.920593 1514.303955,234.211594 1514.303955,194.251038 
	C1521.070923,194.251038 1527.670044,194.251038 1534.816284,194.251038 
	C1534.816284,227.623718 1534.816284,261.004639 1534.816284,294.931335 
	C1552.736206,294.931335 1570.124023,294.931335 1587.750977,294.931335 
	C1587.750977,301.408203 1587.750977,307.340637 1587.750977,314.000000 
	C1575.339355,314.000000 1562.919678,314.000000 1550.000000,314.000000 
z"/>
<path fill="#1064E8" opacity="1.000000" stroke="none" 
	d="
M1165.000000,295.000000 
	C1174.466187,295.000000 1183.432495,295.000000 1192.696777,295.000000 
	C1192.696777,301.419830 1192.696777,307.469482 1192.696777,313.760559 
	C1168.573364,313.760559 1144.645386,313.760559 1120.358276,313.760559 
	C1120.358276,274.030182 1120.358276,234.320969 1120.358276,194.305328 
	C1127.081909,194.305328 1133.798218,194.305328 1140.884277,194.305328 
	C1140.884277,227.753006 1140.884277,261.013885 1140.884277,295.000000 
	C1148.988037,295.000000 1156.744019,295.000000 1165.000000,295.000000 
z"/>
<path fill="#1064E8" opacity="1.000000" stroke="none" 
	d="
M319.420166,179.092514 
	C312.421265,190.761703 300.597809,193.923233 290.415253,186.851685 
	C283.965790,182.372711 281.189301,175.783417 282.161438,168.163483 
	C283.230133,159.787048 288.386993,154.264420 296.535767,152.067184 
	C311.660248,147.988998 325.712921,161.910553 319.420166,179.092514 
z"/>
<path fill="#1064E8" opacity="1.000000" stroke="none" 
	d="
M68.122559,224.777222 
	C74.470795,212.537430 82.997955,208.361237 93.577377,212.022552 
	C100.306801,214.351456 104.756325,219.232193 105.835526,226.039307 
	C107.222916,234.790375 105.461830,243.003113 96.711449,247.613556 
	C89.892021,251.206604 83.096458,251.032562 76.236679,246.864380 
	C67.661003,241.653610 67.689323,233.573608 68.122559,224.777222 
z"/>
<path fill="#1064E8" opacity="1.000000" stroke="none" 
	d="
M182.220627,342.667847 
	C188.669708,346.894257 192.503342,356.371033 190.599030,362.887695 
	C187.848434,372.300354 181.032745,377.497131 172.485550,378.120605 
	C162.648865,378.838165 155.858765,372.627258 153.277969,366.560760 
	C149.983017,358.815552 152.011414,349.432312 158.843796,343.815002 
	C165.959061,337.965210 173.926056,337.840820 182.220627,342.667847 
z"/>
<path fill="#000000" opacity="1.000000" stroke="none" 
	d="
M154.281097,270.548126 
	C154.084076,253.030502 154.084076,235.941803 154.084076,218.491714 
	C168.563690,211.082840 182.308838,203.940979 196.201035,197.097610 
	C197.709961,196.354294 200.356049,196.772766 201.987045,197.606415 
	C214.358582,203.929749 226.696228,210.335281 238.798203,217.152359 
	C240.539780,218.133377 241.758560,221.416534 241.865616,223.697861 
	C242.471786,236.615677 242.807755,249.551483 242.933716,262.484100 
	C242.988220,268.080017 242.233994,273.679413 242.003464,279.283691 
	C241.768433,284.997650 237.073776,286.799591 233.224442,288.838898 
	C222.551743,294.493134 211.674683,299.772614 200.750031,304.928253 
	C199.130814,305.692383 196.471344,305.662140 194.879593,304.849976 
	C182.936615,298.756470 171.221954,292.213257 159.247299,286.185394 
	C155.854874,284.477692 154.853806,282.308136 154.950897,278.866211 
	C155.024902,276.243042 154.652130,273.607239 154.281097,270.548126 
M201.226105,277.999756 
	C215.727219,276.211853 227.228165,264.860046 224.963287,245.809586 
	C223.393845,232.608612 208.890640,223.506958 194.482758,224.759125 
	C178.930084,226.110779 168.221329,243.125290 172.275436,258.573120 
	C175.265564,269.966797 186.501114,279.094940 201.226105,277.999756 
z"/>
<path fill="#000000" opacity="1.000000" stroke="none" 
	d="
M275.749969,271.748230 
	C281.627869,266.996155 287.249420,262.500305 293.179474,257.757690 
	C305.353058,271.165222 317.742523,284.225189 321.833191,302.674255 
	C323.569733,310.506104 319.716217,319.236206 311.475006,322.900085 
	C305.646240,325.491455 299.134644,327.075592 292.777832,327.809265 
	C285.708435,328.625244 278.392761,328.615936 271.322327,327.787628 
	C262.160614,326.714325 253.135300,324.476532 244.527008,322.831024 
	C246.082748,312.660767 247.330460,302.954163 249.205078,293.370209 
	C249.657806,291.055542 251.807510,288.640015 253.824097,287.142303 
	C260.894684,281.890930 268.247803,277.019928 275.749969,271.748230 
z"/>
<path fill="#000000" opacity="1.000000" stroke="none" 
	d="
M75.127235,311.230225 
	C73.682350,296.419098 81.107971,285.331940 89.041412,274.601593 
	C93.421478,268.677277 98.565521,263.317871 103.022423,258.104706 
	C116.466507,267.928925 129.194824,277.647705 142.419052,286.636902 
	C146.339890,289.302094 147.382263,292.395020 148.020233,296.406189 
	C149.400955,305.087250 150.919495,313.746399 152.380081,322.405121 
	C137.055206,326.824432 121.017982,328.797607 104.626846,328.034180 
	C96.277664,327.645294 88.324547,325.801270 81.696465,320.717346 
	C78.876907,318.554657 77.337814,314.722565 75.127235,311.230225 
z"/>
<path fill="#000000" opacity="1.000000" stroke="none" 
	d="
M188.283600,181.690567 
	C180.120132,178.766296 172.283569,176.071091 164.077362,173.248749 
	C168.751053,159.191360 173.736984,145.041702 184.559402,134.028992 
	C195.798889,122.591896 205.257233,126.002213 214.655197,136.612534 
	C219.120331,141.653656 222.378769,147.937317 225.379700,154.052704 
	C228.377274,160.161148 230.370438,166.762482 232.756821,173.024185 
	C222.505463,176.787842 212.433426,180.169174 202.632462,184.208298 
	C197.167099,186.460648 193.196350,183.116394 188.283600,181.690567 
z"/>
<path fill="#000000" opacity="1.000000" stroke="none" 
	d="
M112.313644,250.190460 
	C123.260330,241.421692 133.952621,232.892670 145.496368,223.684448 
	C145.496368,242.406906 145.496368,259.572113 145.496368,277.756775 
	C139.207367,273.304565 133.301453,269.331970 127.630417,265.048431 
	C122.273956,261.002563 117.147232,256.650330 111.990143,252.348160 
	C111.689240,252.097137 112.021591,251.087036 112.313644,250.190460 
z"/>
<path fill="#000000" opacity="1.000000" stroke="none" 
	d="
M282.222260,254.277618 
	C272.090698,262.211243 262.204102,269.891907 251.500198,278.207489 
	C251.500198,259.911530 251.500198,243.073578 251.500198,224.350220 
	C263.641937,233.579208 274.849884,242.098419 286.188568,250.716995 
	C284.532257,252.189163 283.499725,253.106888 282.222260,254.277618 
z"/>
<path fill="#000000" opacity="1.000000" stroke="none" 
	d="
M168.323868,184.692795 
	C174.326569,186.799545 179.979706,188.690430 186.760895,190.958618 
	C176.288422,196.338150 166.911530,201.154907 156.798767,206.349655 
	C158.360168,198.215866 159.786194,190.787231 161.334641,182.720932 
	C163.730606,183.354599 165.852463,183.915756 168.323868,184.692795 
z"/>
<path fill="#000000" opacity="1.000000" stroke="none" 
	d="
M216.745758,188.669098 
	C222.004105,186.817154 226.984482,185.303253 231.868744,183.525299 
	C234.396698,182.605057 235.531555,183.233505 236.019104,185.830750 
	C237.242325,192.347046 238.588806,198.840210 240.084961,206.340836 
	C230.043396,201.170624 220.656082,196.337265 210.554749,191.136276 
	C212.880936,190.249634 214.654449,189.573639 216.745758,188.669098 
z"/>
<path fill="#000000" opacity="1.000000" stroke="none" 
	d="
M159.691956,310.349365 
	C158.726257,305.860748 157.973877,301.744080 156.984406,296.330048 
	C167.061951,301.461304 176.406784,306.219482 186.809967,311.516541 
	C177.916946,314.546326 170.105087,317.207733 161.634506,320.093567 
	C161.000732,316.658569 160.453003,313.689941 159.691956,310.349365 
z"/>
<path fill="#000000" opacity="1.000000" stroke="none" 
	d="
M216.353180,308.265869 
	C224.017120,304.297729 231.364029,300.528351 239.764694,296.218353 
	C238.305389,304.286163 237.030945,311.331940 235.659271,318.915222 
	C226.775650,319.187836 219.479584,313.994232 210.381470,311.663116 
	C212.783524,310.304413 214.409821,309.384521 216.353180,308.265869 
z"/>
<path fill="#000000" opacity="1.000000" stroke="none" 
	d="
M449.246552,273.744049 
	C446.102844,269.359192 443.396393,269.188995 440.065033,273.292023 
	C437.459076,276.501556 434.166412,279.153564 430.889404,282.334290 
	C434.448761,285.635345 437.802521,288.745697 441.307190,291.996063 
	C422.281250,303.258423 394.579224,295.831909 388.918732,269.940338 
	C385.725403,255.333832 386.664764,241.375107 393.036926,227.821426 
	C398.333588,216.555374 413.584106,210.233963 426.873749,211.586441 
	C448.785706,213.816406 457.638550,232.721191 458.002869,250.283463 
	C458.173889,258.526245 458.254913,266.756287 454.973267,274.561127 
	C454.614471,275.414429 454.059296,276.185150 453.323273,277.468170 
	C451.866516,276.146362 450.684174,275.073517 449.246552,273.744049 
z"/>
<path fill="#000000" opacity="1.000000" stroke="none" 
	d="
M1449.993408,265.351440 
	C1450.307007,273.263397 1449.538086,280.520599 1445.946045,287.229126 
	C1441.455078,295.617126 1434.164673,298.710602 1425.026978,297.974365 
	C1416.888428,297.318634 1410.919189,292.858551 1408.380005,285.438995 
	C1404.467896,274.007294 1404.629395,262.382294 1409.447388,250.957428 
	C1412.721436,243.194031 1419.301636,240.567825 1426.600220,240.182602 
	C1434.597534,239.760483 1441.445068,243.248947 1445.128540,250.723709 
	C1447.317749,255.166443 1448.405640,260.151978 1449.993408,265.351440 
z"/>
<path fill="#000000" opacity="1.000000" stroke="none" 
	d="
M1731.829102,240.994476 
	C1743.093262,243.851151 1747.112793,251.951569 1749.079468,262.069061 
	C1751.059570,272.255219 1748.991455,281.252899 1743.630737,290.047638 
	C1737.198730,300.599854 1716.388916,301.407013 1709.799438,288.299500 
	C1703.310547,275.392151 1703.816406,262.331635 1709.928101,249.383072 
	C1713.182007,242.489578 1724.614136,237.915375 1731.829102,240.994476 
z"/>
<path fill="#000000" opacity="1.000000" stroke="none" 
	d="
M1261.062012,254.061920 
	C1261.455078,255.810272 1261.795166,257.146912 1262.216919,258.805176 
	C1247.853638,258.805176 1234.095703,258.805176 1220.343750,258.805176 
	C1220.079346,250.260010 1227.724365,241.331009 1237.223755,240.170563 
	C1247.306152,238.938934 1257.498901,240.544891 1261.062012,254.061920 
z"/>
<path fill="#000000" opacity="1.000000" stroke="none" 
	d="
M616.179932,277.955627 
	C625.425415,275.972748 634.284119,274.081482 643.816772,272.046326 
	C644.229492,281.496368 642.400513,289.088684 635.918579,294.339783 
	C628.826843,300.084930 620.550537,302.183533 611.640564,298.175964 
	C607.818176,296.456726 606.015320,293.539703 605.930420,289.231110 
	C605.845154,284.904572 607.455200,281.964447 611.395569,280.228088 
	C612.891357,279.568970 614.329041,278.778076 616.179932,277.955627 
z"/>
<path fill="#000000" opacity="1.000000" stroke="none" 
	d="
M1618.594360,298.817871 
	C1614.525146,296.708099 1611.888794,294.128387 1611.957520,289.481110 
	C1612.027710,284.720581 1614.527466,281.423523 1618.571899,280.005280 
	C1625.432861,277.599396 1632.529419,275.826111 1639.596069,274.064209 
	C1642.730591,273.282684 1646.033691,273.176819 1649.219482,272.769440 
	C1653.075806,289.924927 1636.370483,304.078583 1618.594360,298.817871 
z"/>
<path fill="#000000" opacity="1.000000" stroke="none" 
	d="
M1323.061768,277.940948 
	C1327.067261,276.929016 1330.632690,275.752716 1334.289795,275.057098 
	C1339.558350,274.054962 1344.893188,273.402130 1352.019043,272.325378 
	C1349.677368,279.238403 1348.601318,285.204712 1345.763672,290.162781 
	C1341.070190,298.363495 1328.357422,302.108643 1319.654907,299.034576 
	C1315.197754,297.460114 1312.711060,294.327148 1312.045288,289.815765 
	C1311.360718,285.178253 1314.510498,282.491821 1317.762085,280.133057 
	C1319.171631,279.110535 1321.015869,278.686951 1323.061768,277.940948 
z"/>
<path fill="#1064E8" opacity="1.000000" stroke="none" 
	d="
M200.771759,277.999878 
	C186.501114,279.094940 175.265564,269.966797 172.275436,258.573120 
	C168.221329,243.125290 178.930084,226.110779 194.482758,224.759125 
	C208.890640,223.506958 223.393845,232.608612 224.963287,245.809586 
	C227.228165,264.860046 215.727219,276.211853 200.771759,277.999878 
z"/>
</svg>