<?xml version="1.0" encoding="UTF-8"?><svg id="Layer_1" xmlns="http://www.w3.org/2000/svg" viewBox="0 0 5091.52 1518.2"><defs><style>.cls-1{opacity:.3;}.cls-1,.cls-2{fill:none;}.cls-2{opacity:.4;}.cls-3{fill:#202124;}</style></defs><path class="cls-3" d="m1417.26,618.36h31.95l44.18,178.8,4.09,16.65h1.36l5.09-16.65,54.39-178.8h29.93l52.01,178.8,5.09,16.65h1.36l47.94-195.45h31.95l-65.62,243.4h-29.91l-51.68-176.09-5.42-19.03h-1.36l-5.78,19.03-53.73,176.09h-29.91l-65.95-243.4Z"/><path class="cls-3" d="m1768.44,854.95c-13.61-8.16-24.21-19.25-31.79-33.31-7.61-14.05-11.4-29.57-11.4-46.56s3.79-32.53,11.4-46.59c7.58-14.05,18.18-25.15,31.79-33.31,13.58-8.16,28.88-12.23,45.9-12.23s32.29,4.07,45.9,12.23c13.58,8.16,24.18,19.25,31.79,33.31,7.58,14.05,11.37,29.57,11.37,46.59s-3.79,32.51-11.37,46.56c-7.61,14.05-18.2,25.15-31.79,33.31-13.61,8.16-28.91,12.26-45.9,12.26s-32.31-4.09-45.9-12.26Zm75.64-21.91c9.18-5.34,16.54-12.97,22.1-22.96,5.53-9.96,8.33-21.63,8.33-35s-2.79-25.06-8.33-35.02c-5.56-9.96-12.92-17.62-22.1-22.96-9.18-5.31-19.09-7.97-29.74-7.97s-20.64,2.66-29.93,7.97c-9.3,5.34-16.71,13-22.24,22.96-5.56,9.96-8.33,21.63-8.33,35.02s2.77,25.04,8.33,35c5.53,9.99,12.95,17.62,22.24,22.96,9.3,5.31,19.28,7.97,29.93,7.97s20.56-2.66,29.74-7.97Z"/><path class="cls-3" d="m1933.65,688.38h27.53v25.51h1.38c4.98-8.85,12.45-16.21,22.44-22.1,9.96-5.89,20.5-8.83,31.59-8.83,12.7,0,23.74,3.04,33.14,9.16,9.41,6.11,16.16,14.28,20.25,24.48,6.11-10.21,14.22-18.37,24.29-24.48,10.1-6.11,21.83-9.16,35.19-9.16,19.95,0,34.97,6.06,45.04,18.18,10.1,12.12,15.13,28.61,15.13,49.47v111.16h-28.55v-106.73c0-16.1-3.29-27.78-9.88-35.02-6.56-7.25-16.29-10.87-29.21-10.87-8.63,0-16.43,2.49-23.46,7.47-7.03,4.98-12.53,11.67-16.49,20.06-3.98,8.38-5.95,17.46-5.95,27.19v97.91h-28.91v-106.4c0-16.32-3.29-28.11-9.85-35.36-6.58-7.25-16.21-10.87-28.88-10.87-8.63,0-16.46,2.55-23.46,7.64-7.03,5.09-12.53,11.9-16.49,20.39-3.98,8.52-5.95,17.65-5.95,27.39v97.22h-28.91v-173.38Z"/><path class="cls-3" d="m2263.76,855.31c-13.14-7.94-23.4-18.87-30.76-32.81-7.39-13.94-11.07-29.63-11.07-47.09s3.46-32.17,10.37-46.23c6.92-14.05,16.71-25.29,29.41-33.67,12.7-8.38,27.42-12.56,44.21-12.56s31.7,3.79,44.18,11.37c12.45,7.61,22.05,18.09,28.72,31.46,6.69,13.36,10.04,28.66,10.04,45.9,0,3.4-.36,6.34-1.02,8.83h-137c.66,13.14,3.85,24.26,9.52,33.31,5.67,9.07,12.86,15.88,21.58,20.42,8.71,4.54,17.84,6.78,27.36,6.78,22.22,0,39.34-10.4,51.35-31.26l24.48,11.9c-7.5,14.05-17.62,25.15-30.43,33.31-12.81,8.16-28.27,12.26-46.39,12.26-16.57,0-31.4-3.98-44.54-11.9Zm94.5-98.6c-.47-7.25-2.49-14.5-6.11-21.74-3.62-7.28-9.35-13.39-17.18-18.37-7.8-4.98-17.62-7.47-29.41-7.47-13.58,0-25.09,4.37-34.5,13.09-9.41,8.71-15.58,20.22-18.54,34.5h105.74Z"/><path class="cls-3" d="m2422.5,688.38h27.53v25.51h1.38c4.76-8.63,12.34-15.94,22.77-21.94,10.43-6,21.52-8.99,33.31-8.99,20.86,0,36.77,6.06,47.78,18.18,10.98,12.12,16.49,28.61,16.49,49.47v111.16h-28.91v-106.73c0-16.1-3.85-27.78-11.56-35.02-7.69-7.25-18.23-10.87-31.59-10.87-9.3,0-17.65,2.6-25.01,7.8-7.36,5.23-13.09,12.09-17.15,20.58-4.09,8.49-6.11,17.4-6.11,26.67v97.58h-28.91v-173.38Z"/><path class="cls-3" d="m2732.99,646.95h-68.33v-27.53h165.22v27.53h-67.97v215.87h-28.91v-215.87Z"/><path class="cls-3" d="m2865.92,856.37c-13.14-7.94-23.4-18.87-30.76-32.81-7.39-13.94-11.07-29.63-11.07-47.09s3.46-32.17,10.37-46.23c6.92-14.05,16.71-25.29,29.41-33.67,12.7-8.38,27.42-12.56,44.21-12.56s31.7,3.79,44.18,11.37c12.45,7.61,22.05,18.09,28.72,31.46,6.69,13.36,10.04,28.66,10.04,45.9,0,3.4-.36,6.34-1.02,8.83h-137c.66,13.14,3.85,24.26,9.52,33.31,5.67,9.07,12.86,15.88,21.58,20.42,8.71,4.54,17.84,6.78,27.36,6.78,22.22,0,39.34-10.4,51.35-31.26l24.48,11.9c-7.5,14.05-17.62,25.15-30.43,33.31-12.81,8.16-28.27,12.26-46.39,12.26-16.57,0-31.4-3.98-44.54-11.9Zm94.5-98.6c-.47-7.25-2.49-14.5-6.11-21.74-3.62-7.28-9.35-13.39-17.18-18.37-7.8-4.98-17.62-7.47-29.41-7.47-13.58,0-25.09,4.37-34.5,13.09-9.41,8.71-15.58,20.22-18.54,34.5h105.74Z"/><path class="cls-3" d="m3059.66,856.18c-13.36-8.02-23.79-19.03-31.26-32.98-7.47-13.92-11.23-29.63-11.23-47.06s3.76-33.2,11.23-47.25c7.47-14.05,17.9-25.06,31.26-32.98,13.39-7.94,28.44-11.9,45.23-11.9,18.81,0,34.61,4.34,47.42,13.09,12.81,8.71,21.91,20.33,27.36,34.83l-26.17,10.87c-4.32-10.65-10.71-18.73-19.2-24.29-8.52-5.56-18.76-8.33-30.76-8.33-10.21,0-19.73,2.77-28.58,8.33-8.83,5.56-15.91,13.31-21.25,23.27-5.31,9.99-7.97,21.44-7.97,34.36s2.66,24.35,7.97,34.33c5.34,9.96,12.42,17.73,21.25,23.27,8.85,5.56,18.37,8.33,28.58,8.33,12.23,0,22.77-2.82,31.59-8.49,8.85-5.64,15.41-13.69,19.73-24.12l25.84,10.87c-5.89,14.28-15.35,25.84-28.38,34.66-13.03,8.85-28.85,13.28-47.42,13.28-16.79,0-31.84-4.04-45.23-12.09Z"/><path class="cls-3" d="m3211.96,619.42h28.91v71.74l-1.38,23.79h1.38c4.76-8.85,12.28-16.21,22.6-22.1,10.29-5.89,21.58-8.83,33.81-8.83,21.08,0,37.18,6.17,48.28,18.51,11.12,12.37,16.65,28.74,16.65,49.13v111.16h-28.88v-106.73c0-15.66-3.96-27.19-11.9-34.69-7.94-7.47-18.26-11.2-30.93-11.2-9.07,0-17.4,2.71-24.98,8.16-7.61,5.42-13.61,12.45-18.04,21.05-4.43,8.63-6.61,17.57-6.61,26.86v96.55h-28.91v-243.4Z"/><path class="cls-3" d="m3403.68,689.44h27.53v25.51h1.38c4.98-8.85,12.45-16.21,22.44-22.1,9.96-5.89,20.5-8.83,31.59-8.83,12.7,0,23.74,3.04,33.14,9.16,9.41,6.11,16.16,14.28,20.25,24.48,6.11-10.21,14.22-18.37,24.29-24.48,10.1-6.11,21.83-9.16,35.19-9.16,19.95,0,34.97,6.06,45.04,18.18,10.1,12.12,15.13,28.61,15.13,49.47v111.16h-28.55v-106.73c0-16.1-3.29-27.78-9.88-35.02-6.56-7.25-16.29-10.87-29.21-10.87-8.63,0-16.43,2.49-23.46,7.47-7.03,4.98-12.53,11.67-16.49,20.06-3.98,8.38-5.95,17.46-5.95,27.19v97.91h-28.91v-106.4c0-16.32-3.29-28.11-9.85-35.36-6.58-7.25-16.21-10.87-28.88-10.87-8.63,0-16.46,2.55-23.46,7.64-7.03,5.09-12.53,11.9-16.49,20.39-3.98,8.52-5.95,17.65-5.95,27.39v97.22h-28.91v-173.38Z"/><path class="cls-3" d="m3720.86,860.77c-9.96-4.98-17.68-11.84-23.1-20.56-5.45-8.71-8.16-18.65-8.16-29.74,0-18.37,6.92-32.7,20.72-43.02,13.83-10.29,31.29-15.46,52.37-15.46,10.4,0,20.11,1.13,29.05,3.4,8.96,2.27,15.82,4.87,20.58,7.83v-10.54c0-12.92-4.54-23.29-13.61-31.12-9.07-7.8-20.5-11.73-34.33-11.73-9.74,0-18.7,2.1-26.86,6.31-8.16,4.18-14.61,10.01-19.37,17.51l-21.74-16.32c6.78-10.43,16.13-18.59,28.02-24.48,11.9-5.89,25.12-8.83,39.62-8.83,23.57,0,42.08,6.17,55.58,18.51,13.47,12.37,20.22,29.19,20.22,50.49v109.8h-27.53v-24.82h-1.36c-5.01,8.38-12.48,15.52-22.44,21.41-9.99,5.89-21.19,8.85-33.67,8.85s-24.01-2.52-34-7.5Zm63.91-25.48c8.38-4.98,15.08-11.67,20.06-20.06,5.01-8.38,7.5-17.57,7.5-27.55-5.45-3.62-12.15-6.56-20.06-8.83-7.94-2.27-16.32-3.4-25.18-3.4-15.85,0-27.8,3.29-35.85,9.85-8.05,6.58-12.06,15.08-12.06,25.51,0,9.52,3.62,17.24,10.87,23.13,7.25,5.89,16.43,8.83,27.53,8.83,9.77,0,18.81-2.49,27.19-7.47Z"/><path class="cls-3" d="m3879.96,619.42h28.91v152.96l81.58-82.94h36.71v1.36l-68,68.67,69.69,102v1.36h-34.33l-55.75-83.3-29.91,29.93v53.37h-28.91v-243.4Z"/><path class="cls-3" d="m4079.18,856.37c-13.14-7.94-23.4-18.87-30.76-32.81-7.39-13.94-11.07-29.63-11.07-47.09s3.46-32.17,10.37-46.23c6.92-14.05,16.71-25.29,29.41-33.67,12.7-8.38,27.42-12.56,44.21-12.56s31.7,3.79,44.18,11.37c12.45,7.61,22.05,18.09,28.72,31.46,6.69,13.36,10.04,28.66,10.04,45.9,0,3.4-.36,6.34-1.02,8.83h-137c.66,13.14,3.85,24.26,9.52,33.31,5.67,9.07,12.86,15.88,21.58,20.42,8.71,4.54,17.84,6.78,27.36,6.78,22.22,0,39.34-10.4,51.35-31.26l24.48,11.9c-7.5,14.05-17.62,25.15-30.43,33.31-12.81,8.16-28.27,12.26-46.39,12.26-16.57,0-31.4-3.98-44.54-11.9Zm94.5-98.6c-.47-7.25-2.49-14.5-6.11-21.74-3.62-7.28-9.35-13.39-17.18-18.37-7.8-4.98-17.62-7.47-29.41-7.47-13.58,0-25.09,4.37-34.5,13.09-9.41,8.71-15.58,20.22-18.54,34.5h105.74Z"/><path class="cls-3" d="m4237.92,689.44h27.53v27.89h1.38c3.4-9.52,9.96-17.46,19.7-23.79,9.74-6.36,19.95-9.52,30.6-9.52,7.94,0,14.75,1.24,20.42,3.73v30.93c-7.28-3.62-15.44-5.45-24.48-5.45-8.38,0-16.1,2.38-23.13,7.17-7.03,4.76-12.64,11.18-16.82,19.25-4.21,8.05-6.28,16.74-6.28,26.06v97.1h-28.91v-173.38Z"/><path class="cls-3" d="m4372.54,855.18c-12.48-8.74-21.3-19.89-26.53-33.5l25.84-11.56c4.32,10.43,10.71,18.48,19.23,24.15,8.49,5.67,17.84,8.49,28.02,8.49,10.9,0,20.17-2.21,27.89-6.64,7.69-4.4,11.56-10.71,11.56-18.87,0-7.25-3.07-13.09-9.18-17.48-6.11-4.43-15.74-8.22-28.88-11.4l-21.08-5.45c-13.83-3.4-25.18-9.16-34-17.32-8.85-8.16-13.25-18.7-13.25-31.62,0-9.99,2.99-18.76,8.99-26.34,6-7.61,14-13.45,23.99-17.51,9.96-4.09,20.72-6.11,32.29-6.11,15.19,0,28.72,3.26,40.61,9.85,11.9,6.58,20.36,15.74,25.34,27.53l-25.15,11.56c-7.72-15.41-21.44-23.13-41.14-23.13-9.52,0-17.84,2.21-24.98,6.64-7.17,4.43-10.73,10.04-10.73,16.82,0,6.36,2.49,11.51,7.5,15.46,4.98,3.98,12.45,7.22,22.44,9.71l25.15,6.45c16.99,4.32,29.8,10.71,38.43,19.2,8.6,8.52,12.92,18.87,12.92,31.12,0,10.65-3.07,20-9.18,28.02-6.11,8.05-14.41,14.25-24.82,18.54-10.43,4.32-21.99,6.47-34.69,6.47-18.56,0-34.11-4.37-46.56-13.09Z"/><path class="cls-3" d="m1079.82,616.17v266.48l-94.87-140.51v-125.97c-.05-8.06,6.8-15.18,15.18-15.18h64.51c8.39,0,15.18,6.8,15.18,15.18Z"/><path class="cls-3" d="m1079.82,893.63v8.42c0,1.04-.1,2.05-.3,3.03,0,.01,0,.02,0,.03-.14.67-.32,1.32-.54,1.95-.02.07-.04.14-.07.21-2.13,5.81-7.71,9.96-14.26,9.96h-64.51c-4.36,0-8.29-1.84-11.06-4.79-.14-.15-.27-.31-.41-.47-.7-.79-1.31-1.67-1.83-2.6-.02-.03-.04-.06-.05-.09-1.17-2.15-1.83-4.61-1.83-7.23v-149.19l94.57,140.07c.12.2.22.44.3.7Z"/><path class="cls-3" d="m827.4,616.17v128.13l-94.87,139.63v-267.76c0-8.38,6.8-15.18,15.18-15.18h64.51c8.39,0,15.18,6.8,15.18,15.18Z"/><path class="cls-3" d="m827.4,754.97v147.08c0,8.25-6.58,14.97-14.79,15.17-.13.01-.26.01-.39.01h-.47s0-.01-.02-.01l-62.75-1.26c-8.39,0-16.45-5.53-16.45-13.91v-4.78c.27-1.56.72-3.13,1.37-4.69l93.5-137.61Z"/><path class="cls-3" d="m954.11,715.97c-.02.1-.04.21-.07.31v.04c-.26,1.12-.62,2.18-1.1,3.14-.08.19-.18.37-.27.55-.02.05-.04.11-.07.15,0,.01,0,.02-.02.03-.06.12-.11.24-.18.36l-6.08,9.19c-10.26,15.6-24.37,36.84-39.25,59.35l-45.49-68.54,76.13-24.66c5.99,0,10.84,3.12,14.43,8.38l.97,1.43h0c1.36,3.14,1.78,6.72,1,10.27Z"/><path class="cls-3" d="m1079.51,905.08s0,.02,0,.03c-.14.67-.32,1.32-.54,1.95-.02.07-.04.14-.07.21-.34,1.11-.72,2.04-1.13,2.68-2.26,3.5-5.6,7.35-13.19,7.35h-63.51c-4.66,0-8.25-.71-11.59-4.41-.14-.14-.27-.29-.41-.45-.14-.15-.27-.31-.41-.47-.7-.79-1.31-1.67-1.83-2.6-.02-.03-.04-.06-.05-.09-.16-.25-.31-.5-.46-.77l-75.65-114c.47-.7.93-1.4,1.39-2.1,5.92-8.94,11.71-17.69,17.19-25.96,8.17-12.35,15.89-24,22.08-33.41l6.08-9.18.14-.22.12-.23c.07-.13.14-.26.2-.38.1-.17.17-.33.23-.46.09-.18.18-.35.26-.52.66-1.36,1.17-2.83,1.52-4.36v-.05s.03-.08.03-.08c.02-.12.05-.25.07-.37.07-.34.14-.69.19-1.03l24.78,36.7,94.57,140.07c.12.2.22.44.3.7.33.93.48,2.21.5,3.65.15,2.31-.07,5.08-.8,7.8Z"/><path class="cls-3" d="m986.82,909.37c.52.93,1.13,1.81,1.83,2.6-.62-.76-1.24-1.63-1.83-2.6Zm92.48-3.57c-.11.44-.22.86-.34,1.26.22-.63.4-1.28.54-1.95-.06.23-.13.46-.2.69Z"/><g class="cls-1"><path class="cls-3" d="m758.62,917.14l-9.34.08c-6.64.07-11.36-2.55-14.4-7.13-3.24-4.88-3.6-11.23-.98-17.52l.14-.21,127.65-187.94c3.9-5.91,9.05-8.56,15.14-8.56h61.83c2.32.06,4.58.61,6.52,1.55,1.53.74,2.97,1.7,4.21,2.91,1.13,1.1,2.12,2.41,3,3.9,0,0-8.16-6.89-13.7-6.89h-61.86c-5.57,0-10.3,2.42-13.92,7.91l-127.68,187.92c-2.4,5.8-2.08,11.68.87,16.13,2.76,4.16,7.41,7.16,13.16,7.18l9.37.67h0Z"/></g><path class="cls-3" d="m954.11,715.97c-.02.1-.04.21-.07.31v.04c-.26,1.12-.62,2.18-1.1,3.14-.08.19-.18.37-.27.55-.02.05-.04.11-.07.15,0,.01,0,.02-.02.03-.06.12-.11.24-.18.36l-6.08,9.19c-10.26,15.6-24.37,36.84-39.25,59.35,0,.01-.01.01-.01.02-36.89,55.8-78.57,118.81-78.57,118.81-.54.86-1.11,1.65-1.7,2.39-.17.22-.35.43-.53.65-.03.04-.06.08-.1.12-1.28,1.5-2.7,2.75-4.25,3.72-.04.03-.08.05-.13.08-.17.11-.35.2-.52.3-.16.09-.31.18-.47.27-.04.01-.07.03-.1.04-2.22,1.15-4.64,1.73-7.27,1.73h-.81c-.13.01-.26.01-.39.01h-.47s0-.01-.02-.01c-6.09.01-26.67.04-43.04.04-9.01,0-16.73-.01-20.06-.03-.89-.01-1.47-.04-1.66-.05-2.53-.16-4.91-.93-6.98-2.13l-.06-.03c-.28-.17-.56-.34-.83-.52h0c-.22-.15-.43-.3-.64-.45l-.08-.08c-4.8-3.69-7.01-10.06-5.85-16.7.27-1.56.72-3.13,1.37-4.69l93.5-137.61,34.22-50.36c3.61-5.47,8.54-8.72,14.66-8.72l61.88-.02c2.99,0,5.7.77,8.02,2.08.01,0,.01.01.02.01s.02,0,.03.02c.52.29,1.02.61,1.5.96.03.02.05.05.08.07.48.35.94.73,1.38,1.14.02.02.04.04.06.06,1.65,1.54,2.96,3.42,3.86,5.49h0c1.36,3.14,1.78,6.72,1,10.27Z"/><path class="cls-3" d="m811.74,917.22h.47c.13.01.26.01.39,0h-.86Z"/><g class="cls-1"><path class="cls-3" d="m761.99,959.3h0c0-5.58-4.99-9.48-10.24-9.48l-73.73-.67c-1.86-.02-3.68-.53-5.28-1.48l-.17-.1c-.4-.19-.78-.43-1.11-.73l-.47-.42c1.09.89,2.37,1.5,3.74,1.79h0c.13.04.96.17,1.1.19.42.05.84.07,1.25.08h74.67c2.44,0,4.55.76,6.25,2.06,1.22.93,2.35,2.23,3.03,3.77.65,1.46.98,2.65.96,4.98Z"/><path class="cls-3" d="m613.75,506.08h138.19c4.74,0,10.05,4.06,10.05,9.93h0c0-5.1-5.9-8.66-10.03-8.66h-138.18c-.28,0-.35.04-.79.1l-1.69-1.04c.51-.12,1.45-.33,2.46-.33Z"/></g><g class="cls-1"><path class="cls-3" d="m1133.71,569.68c5.96,0,10.8,3.57,10.8,9.55l.28,358.91c.07,3.42-1.09,6.53-3.27,8.75-2.22,2.26-5.29,3.47-8.94,3.42l-73.32-.05c-5.18,0-8.95,3.71-8.95,8.82l-.09,42.3c0,2.32.65,5.55,2.62,7.48,2.41,2.37,6.22,3.21,6.22,3.21-.56-.03-1.12-.03-1.63-.11-5.57-.92-8.66-5.11-8.66-10.59l.09-42.3c0-5.95,4.38-10.27,10.41-10.27l73.32.05c3.24.04,5.95-1.01,7.89-2.98,1.9-1.93,2.91-4.67,2.85-7.71l.03-358.92c0-5.18-4.63-9.45-9.65-9.56h0Z"/><path class="cls-3" d="m1059.26,569.71c-6.54,0-10.5-4.7-10.5-10.69v-43.37c0-4.63,4.18-9.58,10.07-9.58.16,0,113.3.12,137.41.01,3.08-.01,5.58,1.71,5.58,1.71l-2.01-.49c-.26-.05-.98-.06-1.25-.06-8.19,0-139.56,0-139.73.01-4.89.22-8.61,3.39-8.61,8.39l-.31,43.37c0,5.18,3.77,10.66,8.93,10.66"/></g><path class="cls-3" d="m751.88,1012.1h-138.03c-5.59,0-10.12-4.53-10.12-10.12v-485.78c0-5.59,4.53-10.12,10.11-10.12h138.03c5.59,0,10.12,4.53,10.12,10.12v43.01c0,5.59-4.53,10.12-10.12,10.12h-74.78c-5.59,0-10.12,4.53-10.12,10.12v358.92c0,5.59,4.53,10.12,10.12,10.12h74.78c5.59,0,10.12,4.53,10.12,10.12v43.37c0,5.59-4.53,10.12-10.11,10.12Z"/><g class="cls-1"><path class="cls-3" d="m613.62,1012.09c-3.8,0-6.96-2.26-8.93-5.79h0c1.72,3.1,5.62,4.32,8.93,4.32h0l138.11-.08c5.43,0,8.97-3.98,8.97-7.84l.33-43.29s-.13-3.41-.4-3.88l-.78-3.17.68.97s1.48,2.43,1.47,4.92c0,.82-.02,1.76-.02,2.3l.02,42.14c0,4.66-4.57,9.32-10.26,9.32l-138.11.08h0Z"/><path class="cls-3" d="m676.17,948.44c-2.64,0-10.79-3.38-10.79-9.37v-358.92c0-5.92,4.51-12.53,10.54-12.53l73.97-.06c5.06,0,10.5-2.39,10.5-7.65v-43.01c0-5.18-4.21-10.83-9.39-10.83h0c3.69-.16,7,1.39,9,4.11,1.32,1.79,2.11,4.09,1.96,6.76v42.61s0,.65-.16,1.43c-.28,1.36-.77,2.74-1.57,3.92-.96,1.4-2.33,2.57-3.85,3.36-1.88.97-4.11,1.12-6.54,1.06h-73.25c-1.69-.01-3.21.59-4.54,1.33-3.39,1.89-5.42,5.65-5.1,9.5v358.94c.01,2.1.92,3.9,2.1,5.45,1.72,2.26,4.45,3.7,7.16,3.92l-.06-.02Z"/></g><path class="cls-3" d="m1058.84,506.08h137.41c5.56,0,10.07,4.53,10.07,10.12v485.78c0,5.59-4.51,10.12-10.07,10.12h-137.41c-5.56,0-10.07-4.53-10.07-10.12v-43.01c0-5.59,4.51-10.12,10.07-10.12h74.45c5.56,0,10.07-4.53,10.07-10.12v-358.92c0-5.59-4.51-10.12-10.07-10.12h-74.45c-5.56,0-10.07-4.53-10.07-10.12v-43.37c0-5.59,4.51-10.12,10.07-10.12Z"/><g class="cls-1"><path class="cls-3" d="m1199.47,1011.57h0c3.27-1.54,5.39-5.96,5.39-9.59l.08-485.3c0-3.74-2.16-8.53-5.39-10.02h0c3.45,1.1,5.87,4.06,6.61,7.65.16.76.16,1.55.16,2.36v485.3c0,4.19-2.44,7.94-6.85,9.59Z"/></g><g class="cls-1"><path class="cls-3" d="m1197.71,1011.99c-.34.05-1.28.1-1.62.1l-133.97-.03h-1.13c-1.84.02-3.26.05-4.49-.23-1.07-.25-2.49-.81-3.71-1.76-.09-.07-.39-.34-.67-.59-.25-.23-.48-.44-.48-.44,0,0,2.63,1.28,3.79,1.48,2.45.43,3.79.29,5.55.27h1.14s134.29.13,134.29.13c1.99,0,5.5-.86,7.15-1.99h0l-.66.61c-1.04.97-2.46,1.74-3.97,2.18h0s-.89.21-1.22.26Z"/></g><g class="cls-2"><path class="cls-3" d="m1048.76,559.01c0,5.18,5.35,9.39,10.5,9.39h74.45c5.96,0,9.6,4.34,9.6,10.32h0c-.43-4.47-4.45-9.03-9.6-9.03h-74.45c-5.96,0-10.09-4.5-10.44-9l-.06-1.68Z"/></g><g class="cls-2"><path class="cls-3" d="m611.29,506.41l1.69,1.04c-4.82.86-7.79,5.17-7.79,8.8l-.08,485.3c0,3.74,2.16,8.53,5.39,10.02h0c-3.45-1.1-5.87-4.06-6.61-7.65-.16-.76-.16-1.55-.16-2.36v-485.3c0-4.19,2.96-8.82,7.56-9.84Z"/></g><path class="cls-3" d="m754.09,1012.13h-138.03c-5.59,0-10.12-4.53-10.12-10.12v-485.78c0-5.59,4.53-10.12,10.11-10.12h138.03c5.59,0,10.12,4.53,10.12,10.12v43.01c0,5.59-4.53,10.12-10.12,10.12h-74.78c-5.59,0-10.12,4.53-10.12,10.12v358.92c0,5.59,4.53,10.12,10.12,10.12h74.78c5.59,0,10.12,4.53,10.12,10.12v43.37c0,5.59-4.53,10.12-10.11,10.12Z"/><g class="cls-1"><path class="cls-3" d="m615.83,1012.12c-3.8,0-6.96-2.26-8.93-5.79h0c1.72,3.1,5.62,4.32,8.93,4.32h0l138.11-.08c5.43,0,8.97-3.98,8.97-7.84l.33-43.29s-.13-3.41-.4-3.88l-.78-3.17.68.97s1.48,2.43,1.47,4.92c0,.82-.02,1.76-.02,2.3l.02,42.14c0,4.66-4.57,9.32-10.26,9.32l-138.11.08h0Z"/><path class="cls-3" d="m678.38,948.48c-2.64,0-10.79-3.38-10.79-9.37v-358.92c0-5.92,4.51-12.53,10.54-12.53l73.97-.06c5.06,0,10.5-2.39,10.5-7.65v-43.01c0-5.18-4.21-10.83-9.39-10.83h0c3.69-.16,7,1.39,9,4.11,1.32,1.79,2.11,4.09,1.96,6.76v42.61s0,.65-.16,1.43c-.28,1.36-.77,2.74-1.57,3.92-.96,1.4-2.33,2.57-3.85,3.36-1.88.97-4.11,1.12-6.54,1.06h-73.25c-1.69-.01-3.21.59-4.54,1.33-3.39,1.89-5.42,5.65-5.1,9.5v358.94c.01,2.1.92,3.9,2.1,5.45,1.72,2.26,4.45,3.7,7.16,3.92l-.06-.02Z"/></g><path class="cls-3" d="m1061.05,506.12h137.41c5.56,0,10.07,4.53,10.07,10.12v485.78c0,5.59-4.51,10.12-10.07,10.12h-137.41c-5.56,0-10.07-4.53-10.07-10.12v-43.01c0-5.59,4.51-10.12,10.07-10.12h74.45c5.56,0,10.07-4.53,10.07-10.12v-358.92c0-5.59-4.51-10.12-10.07-10.12h-74.45c-5.56,0-10.07-4.53-10.07-10.12v-43.37c0-5.59,4.51-10.12,10.07-10.12Z"/><g class="cls-1"><path class="cls-3" d="m1201.68,1011.6h0c3.27-1.54,5.39-5.96,5.39-9.59l.08-485.3c0-3.74-2.16-8.53-5.39-10.02h0c3.45,1.1,5.87,4.06,6.61,7.65.16.76.16,1.55.16,2.36v485.3c0,4.19-2.44,7.94-6.85,9.59Z"/></g><g class="cls-1"><path class="cls-3" d="m1199.92,1012.03c-.34.05-1.28.1-1.62.1l-133.97-.03h-1.13c-1.84.02-3.26.05-4.49-.23-1.07-.25-2.49-.81-3.71-1.76-.09-.07-.39-.34-.67-.59-.25-.23-.48-.44-.48-.44,0,0,2.63,1.28,3.79,1.48,2.45.43,3.79.29,5.55.27h1.14s134.29.13,134.29.13c1.99,0,5.5-.86,7.15-1.99h0l-.66.61c-1.04.97-2.46,1.74-3.97,2.18h0s-.89.21-1.22.26Z"/></g></svg>