<svg xmlns="http://www.w3.org/2000/svg" xmlns:xlink="http://www.w3.org/1999/xlink" width="500" zoomAndPan="magnify" viewBox="0 0 375 374.999991" height="500" preserveAspectRatio="xMidYMid meet" version="1.0"><defs><g/></defs><g fill="#ffffff" fill-opacity="1"><g transform="translate(80.963159, 236.211188)"><g><path d="M 31.453125 1.0625 C 23.171875 1.0625 16.539062 -1.535156 11.5625 -6.734375 C 6.582031 -11.941406 4.09375 -19.082031 4.09375 -28.15625 L 4.09375 -80.5 C 4.09375 -91.78125 6.335938 -100.285156 10.828125 -106.015625 C 15.328125 -111.742188 22.378906 -114.609375 31.984375 -114.609375 C 40.359375 -114.609375 47.097656 -112.316406 52.203125 -107.734375 C 57.316406 -103.148438 59.875 -96.539062 59.875 -87.90625 L 59.875 -68.34375 L 37.28125 -68.34375 L 37.28125 -85.125 C 37.28125 -88.382812 36.878906 -90.628906 36.078125 -91.859375 C 35.285156 -93.097656 33.921875 -93.71875 31.984375 -93.71875 C 29.960938 -93.71875 28.578125 -93.007812 27.828125 -91.59375 C 27.078125 -90.1875 26.703125 -88.117188 26.703125 -85.390625 L 26.703125 -28.421875 C 26.703125 -25.421875 27.140625 -23.238281 28.015625 -21.875 C 28.898438 -20.507812 30.222656 -19.828125 31.984375 -19.828125 C 35.515625 -19.828125 37.28125 -22.691406 37.28125 -28.421875 L 37.28125 -48.90625 L 60.140625 -48.90625 L 60.140625 -27.5 C 60.140625 -8.457031 50.578125 1.0625 31.453125 1.0625 Z M 31.453125 1.0625 "/></g></g></g><g fill="#ffffff" fill-opacity="1"><g transform="translate(143.619116, 236.211188)"><g><path d="M 5.015625 0 L 5.015625 -113.546875 L 27.625 -113.546875 L 27.625 -72.96875 L 38.328125 -72.96875 L 38.328125 -113.546875 L 60.9375 -113.546875 L 60.9375 0 L 38.328125 0 L 38.328125 -51.546875 L 27.625 -51.546875 L 27.625 0 Z M 5.015625 0 "/></g></g></g><g fill="#ffffff" fill-opacity="1"><g transform="translate(209.579718, 236.211188)"><g><path d="M 5.015625 0 L 5.015625 -113.546875 L 50.5 -113.546875 L 50.5 -91.46875 L 27.890625 -91.46875 L 27.890625 -73.359375 L 49.3125 -73.359375 L 49.3125 -51.546875 L 27.890625 -51.546875 L 27.890625 0 Z M 5.015625 0 "/></g></g></g><g fill="#ffffff" fill-opacity="1"><g transform="translate(266.767518, 236.211188)"><g><path d="M 1.84375 0 L 28.28125 -114.078125 L 51.8125 -114.078125 L 25.25 0 Z M 1.84375 0 "/></g></g></g><g fill="#ffffff" fill-opacity="1"><g transform="translate(320.302648, 236.211188)"><g><path d="M 3.4375 -12.953125 L 3.4375 -35.953125 L 25.515625 -48.375 L 3.4375 -60.671875 L 3.4375 -83.9375 L 40.1875 -61.859375 L 40.1875 -35.15625 Z M 3.4375 -12.953125 "/></g></g></g><g fill="#ffffff" fill-opacity="1"><g transform="translate(56.602562, 134.527287)"><g><path d="M -3.4375 12.953125 L -3.4375 35.953125 L -25.515625 48.375 L -3.4375 60.671875 L -3.4375 83.9375 L -40.1875 61.859375 L -40.1875 35.15625 Z M -3.4375 12.953125 "/></g></g></g></svg>